<svg width="508" height="200" fill="none" xmlns="http://www.w3.org/2000/svg"><path d="M101.124 31.573a4.207 4.207 0 01-4.205 4.209 4.207 4.207 0 01-4.205-4.209 4.207 4.207 0 014.205-4.209 4.207 4.207 0 014.205 4.21z" fill="url(#paint0_linear_293_27786)"/><path d="M95.517 32.976h2.804v84.175h-2.803V32.976z" fill="url(#paint1_linear_293_27786)"/><path d="M112.338 9.126a4.207 4.207 0 01-4.205 4.21 4.206 4.206 0 01-4.205-4.21 4.206 4.206 0 014.205-4.208 4.207 4.207 0 014.205 4.208z" fill="url(#paint2_linear_293_27786)"/><path d="M106.731 10.53h2.804v106.62h-2.804V10.529z" fill="url(#paint3_linear_293_27786)"/><path d="M123.552 31.573a4.207 4.207 0 01-4.205 4.209 4.207 4.207 0 01-4.206-4.209 4.207 4.207 0 014.206-4.209 4.207 4.207 0 014.205 4.21z" fill="url(#paint4_linear_293_27786)"/><path d="M117.945 32.976h2.803v84.175h-2.803V32.976z" fill="url(#paint5_linear_293_27786)"/><path d="M95.377 160.718h2.803V200h-2.803v-39.282z" fill="url(#paint6_linear_293_27786)"/><path d="M106.59 160.718h2.804V200h-2.804v-39.282z" fill="url(#paint7_linear_293_27786)"/><path d="M117.804 160.718h2.804V200h-2.804v-39.282z" fill="url(#paint8_linear_293_27786)"/><path d="M147.488 145.901a4.207 4.207 0 00-4.205 4.209 4.206 4.206 0 108.41 0 4.206 4.206 0 00-4.205-4.209z" fill="url(#paint9_linear_293_27786)"/><path d="M146.087 151.513v-2.806H33.95v2.806h112.137z" fill="url(#paint10_linear_293_27786)"/><path d="M158.702 134.678a4.207 4.207 0 00-4.205 4.208 4.207 4.207 0 004.205 4.209 4.207 4.207 0 004.205-4.209 4.207 4.207 0 00-4.205-4.208z" fill="url(#paint11_linear_293_27786)"/><path d="M157.3 140.289v-2.806H45.164v2.806H157.3z" fill="url(#paint12_linear_293_27786)"/><path d="M147.488 123.454a4.208 4.208 0 00-4.205 4.209 4.208 4.208 0 004.205 4.209 4.207 4.207 0 004.205-4.209 4.207 4.207 0 00-4.205-4.209z" fill="url(#paint13_linear_293_27786)"/><path d="M146.087 129.066v-2.806h-89.71v2.806h89.71z" fill="url(#paint14_linear_293_27786)"/><path d="M19.132 135.84a4.203 4.203 0 015.857-1.034 4.211 4.211 0 011.032 5.862 4.202 4.202 0 01-5.856 1.033 4.21 4.21 0 01-1.033-5.861z" fill="url(#paint15_linear_293_27786)"/><path d="M24.529 137.909l-2.296-1.609L80.12 53.557l2.296 1.61-57.887 82.742z" fill="url(#paint16_linear_293_27786)"/><path d="M3.515 138.596a4.203 4.203 0 015.856-1.034 4.211 4.211 0 011.033 5.862 4.202 4.202 0 01-5.857 1.033 4.21 4.21 0 01-1.032-5.861z" fill="url(#paint17_linear_293_27786)"/><path d="M8.911 140.665l-2.296-1.609L82.19 31.031l2.296 1.61L8.911 140.664z" fill="url(#paint18_linear_293_27786)"/><path d="M.76 122.965a4.203 4.203 0 015.857-1.034 4.211 4.211 0 011.033 5.862 4.202 4.202 0 01-5.856 1.033 4.21 4.21 0 01-1.033-5.861z" fill="url(#paint19_linear_293_27786)"/><path d="M6.158 125.034l-2.297-1.609L89.084 1.609l2.296 1.61L6.158 125.034z" fill="url(#paint20_linear_293_27786)"/><path d="M308.932 103.179v-77.52L285.921 2.768h-71.728l-23.005 22.528v49.912h-2.803v-51.07L213.038 0h74.05l24.647 24.52v78.659h-2.803z" fill="url(#paint21_linear_293_27786)"/><path d="M306.172 104.183c0-2.31 1.883-4.183 4.205-4.183 2.323 0 4.205 1.873 4.205 4.183 0 2.311-1.882 4.184-4.205 4.184-2.322 0-4.205-1.873-4.205-4.184z" fill="url(#paint22_linear_293_27786)"/><path d="M297.718 86.446v-55.21l-17.404-17.314h-60.508l-17.404 17.313V86.36h-2.803V30.098l18.63-18.532.41-.41h62.842l.41.41 18.63 18.531v56.349h-2.803z" fill="url(#paint23_linear_293_27786)"/><path d="M294.958 90.239c0-2.31 1.883-4.184 4.206-4.184 2.322 0 4.205 1.873 4.205 4.184 0 2.31-1.883 4.183-4.205 4.183-2.323 0-4.206-1.873-4.206-4.183z" fill="url(#paint24_linear_293_27786)"/><path d="M286.504 97.602V35.419l-10.395-10.34h-52.098l-10.395 10.34v39.79h-2.804V34.282l11.622-11.56.411-.41h54.431l.41.41 11.622 11.56v63.32h-2.804z" fill="url(#paint25_linear_293_27786)"/><path d="M283.745 101.394c0-2.31 1.883-4.183 4.205-4.183s4.205 1.873 4.205 4.183c0 2.311-1.883 4.184-4.205 4.184s-4.205-1.873-4.205-4.184z" fill="url(#paint26_linear_293_27786)"/><path d="M190.991 96.82v77.52l23.011 22.893h71.728l23.005-22.528v-49.912h2.803v51.069L286.885 200h-74.05l-24.647-24.519v-78.66h2.803z" fill="url(#paint27_linear_293_27786)"/><path d="M193.784 95.8c0 2.302-1.89 4.167-4.222 4.167-2.331 0-4.221-1.865-4.221-4.167 0-2.301 1.89-4.167 4.221-4.167 2.332 0 4.222 1.866 4.222 4.167z" fill="url(#paint28_linear_293_27786)"/><path d="M202.205 113.554v55.211l17.404 17.313h60.508l17.404-17.313v-55.124h2.803v56.261l-18.63 18.532-.41.411h-62.842l-.41-.411-18.63-18.532v-56.348h2.803z" fill="url(#paint29_linear_293_27786)"/><path d="M204.998 109.745c0 2.301-1.89 4.167-4.222 4.167-2.332 0-4.222-1.866-4.222-4.167 0-2.302 1.89-4.167 4.222-4.167 2.332 0 4.222 1.865 4.222 4.167z" fill="url(#paint30_linear_293_27786)"/><path d="M213.419 102.399v62.182l10.395 10.341h52.098l10.395-10.341v-39.79h2.804v40.927l-11.622 11.56-.411.411h-54.431l-.41-.411-11.622-11.56v-63.319h2.804z" fill="url(#paint31_linear_293_27786)"/><path d="M216.212 98.59c0 2.301-1.891 4.166-4.222 4.166-2.332 0-4.222-1.865-4.222-4.167 0-2.301 1.89-4.167 4.222-4.167 2.331 0 4.222 1.866 4.222 4.167z" fill="url(#paint32_linear_293_27786)"/><path d="M446.217 31.573a4.206 4.206 0 01-4.205 4.209 4.207 4.207 0 01-4.205-4.209 4.207 4.207 0 014.205-4.209 4.206 4.206 0 014.205 4.21z" fill="url(#paint33_linear_293_27786)"/><path d="M440.61 32.976h2.804v84.175h-2.804V32.976z" fill="url(#paint34_linear_293_27786)"/><path d="M457.431 9.126a4.207 4.207 0 01-4.205 4.21 4.206 4.206 0 01-4.205-4.21 4.206 4.206 0 014.205-4.208 4.207 4.207 0 014.205 4.208z" fill="url(#paint35_linear_293_27786)"/><path d="M451.824 10.53h2.803v106.62h-2.803V10.529z" fill="url(#paint36_linear_293_27786)"/><path d="M468.645 31.573a4.207 4.207 0 01-4.206 4.209 4.207 4.207 0 01-4.205-4.209 4.207 4.207 0 014.205-4.209 4.207 4.207 0 014.206 4.21z" fill="url(#paint37_linear_293_27786)"/><path d="M463.038 32.976h2.803v84.175h-2.803V32.976z" fill="url(#paint38_linear_293_27786)"/><path d="M440.47 160.718h2.803V200h-2.803v-39.282z" fill="url(#paint39_linear_293_27786)"/><path d="M451.683 160.718h2.804V200h-2.804v-39.282z" fill="url(#paint40_linear_293_27786)"/><path d="M462.897 160.718h2.803V200h-2.803v-39.282z" fill="url(#paint41_linear_293_27786)"/><path d="M492.581 145.901a4.207 4.207 0 00-4.205 4.209 4.206 4.206 0 108.41 0 4.206 4.206 0 00-4.205-4.209z" fill="url(#paint42_linear_293_27786)"/><path d="M491.18 151.513v-2.806H379.043v2.806H491.18z" fill="url(#paint43_linear_293_27786)"/><path d="M503.795 134.678a4.206 4.206 0 00-4.205 4.208 4.206 4.206 0 004.205 4.209 4.207 4.207 0 004.205-4.209 4.207 4.207 0 00-4.205-4.208z" fill="url(#paint44_linear_293_27786)"/><path d="M502.393 140.289v-2.806H390.257v2.806h112.136z" fill="url(#paint45_linear_293_27786)"/><path d="M492.581 123.454a4.208 4.208 0 00-4.205 4.209 4.208 4.208 0 004.205 4.209 4.207 4.207 0 004.205-4.209 4.207 4.207 0 00-4.205-4.209z" fill="url(#paint46_linear_293_27786)"/><path d="M491.18 129.066v-2.806h-89.71v2.806h89.71z" fill="url(#paint47_linear_293_27786)"/><path d="M364.225 135.84a4.204 4.204 0 015.857-1.034 4.212 4.212 0 011.032 5.862 4.201 4.201 0 01-5.856 1.033 4.21 4.21 0 01-1.033-5.861z" fill="url(#paint48_linear_293_27786)"/><path d="M369.622 137.909l-2.296-1.609 57.886-82.743 2.297 1.61-57.887 82.742z" fill="url(#paint49_linear_293_27786)"/><path d="M348.608 138.596a4.203 4.203 0 015.856-1.034 4.211 4.211 0 011.033 5.862 4.202 4.202 0 01-5.857 1.033 4.21 4.21 0 01-1.032-5.861z" fill="url(#paint50_linear_293_27786)"/><path d="M354.004 140.665l-2.296-1.609 75.575-108.025 2.296 1.61-75.575 108.024z" fill="url(#paint51_linear_293_27786)"/><path d="M345.854 122.965a4.203 4.203 0 015.856-1.034 4.211 4.211 0 011.033 5.862 4.202 4.202 0 01-5.857 1.033 4.21 4.21 0 01-1.032-5.861z" fill="url(#paint52_linear_293_27786)"/><path d="M351.251 125.034l-2.297-1.609L434.177 1.609l2.296 1.61-85.222 121.815z" fill="url(#paint53_linear_293_27786)"/><defs><linearGradient id="paint0_linear_293_27786" x1="0" y1="0" x2="471.361" y2="265.137" gradientUnits="userSpaceOnUse"><stop stop-color="#5793C7"/><stop offset="1" stop-color="#1C4354"/></linearGradient><linearGradient id="paint1_linear_293_27786" x1="0" y1="0" x2="471.361" y2="265.137" gradientUnits="userSpaceOnUse"><stop stop-color="#5793C7"/><stop offset="1" stop-color="#1C4354"/></linearGradient><linearGradient id="paint2_linear_293_27786" x1="0" y1="0" x2="471.361" y2="265.137" gradientUnits="userSpaceOnUse"><stop stop-color="#5793C7"/><stop offset="1" stop-color="#1C4354"/></linearGradient><linearGradient id="paint3_linear_293_27786" x1="0" y1="0" x2="471.361" y2="265.137" gradientUnits="userSpaceOnUse"><stop stop-color="#5793C7"/><stop offset="1" stop-color="#1C4354"/></linearGradient><linearGradient id="paint4_linear_293_27786" x1="0" y1="0" x2="471.361" y2="265.137" gradientUnits="userSpaceOnUse"><stop stop-color="#5793C7"/><stop offset="1" stop-color="#1C4354"/></linearGradient><linearGradient id="paint5_linear_293_27786" x1="0" y1="0" x2="471.361" y2="265.137" gradientUnits="userSpaceOnUse"><stop stop-color="#5793C7"/><stop offset="1" stop-color="#1C4354"/></linearGradient><linearGradient id="paint6_linear_293_27786" x1="0" y1="0" x2="471.361" y2="265.137" gradientUnits="userSpaceOnUse"><stop stop-color="#5793C7"/><stop offset="1" stop-color="#1C4354"/></linearGradient><linearGradient id="paint7_linear_293_27786" x1="0" y1="0" x2="471.361" y2="265.137" gradientUnits="userSpaceOnUse"><stop stop-color="#5793C7"/><stop offset="1" stop-color="#1C4354"/></linearGradient><linearGradient id="paint8_linear_293_27786" x1="0" y1="0" x2="471.361" y2="265.137" gradientUnits="userSpaceOnUse"><stop stop-color="#5793C7"/><stop offset="1" stop-color="#1C4354"/></linearGradient><linearGradient id="paint9_linear_293_27786" x1="0" y1="0" x2="471.361" y2="265.137" gradientUnits="userSpaceOnUse"><stop stop-color="#5793C7"/><stop offset="1" stop-color="#1C4354"/></linearGradient><linearGradient id="paint10_linear_293_27786" x1="0" y1="0" x2="471.361" y2="265.137" gradientUnits="userSpaceOnUse"><stop stop-color="#5793C7"/><stop offset="1" stop-color="#1C4354"/></linearGradient><linearGradient id="paint11_linear_293_27786" x1="0" y1="0" x2="471.361" y2="265.137" gradientUnits="userSpaceOnUse"><stop stop-color="#5793C7"/><stop offset="1" stop-color="#1C4354"/></linearGradient><linearGradient id="paint12_linear_293_27786" x1="0" y1="0" x2="471.361" y2="265.137" gradientUnits="userSpaceOnUse"><stop stop-color="#5793C7"/><stop offset="1" stop-color="#1C4354"/></linearGradient><linearGradient id="paint13_linear_293_27786" x1="0" y1="0" x2="471.361" y2="265.137" gradientUnits="userSpaceOnUse"><stop stop-color="#5793C7"/><stop offset="1" stop-color="#1C4354"/></linearGradient><linearGradient id="paint14_linear_293_27786" x1="0" y1="0" x2="471.361" y2="265.137" gradientUnits="userSpaceOnUse"><stop stop-color="#5793C7"/><stop offset="1" stop-color="#1C4354"/></linearGradient><linearGradient id="paint15_linear_293_27786" x1="0" y1="0" x2="471.361" y2="265.137" gradientUnits="userSpaceOnUse"><stop stop-color="#5793C7"/><stop offset="1" stop-color="#1C4354"/></linearGradient><linearGradient id="paint16_linear_293_27786" x1="0" y1="0" x2="471.361" y2="265.137" gradientUnits="userSpaceOnUse"><stop stop-color="#5793C7"/><stop offset="1" stop-color="#1C4354"/></linearGradient><linearGradient id="paint17_linear_293_27786" x1="0" y1="0" x2="471.361" y2="265.137" gradientUnits="userSpaceOnUse"><stop stop-color="#5793C7"/><stop offset="1" stop-color="#1C4354"/></linearGradient><linearGradient id="paint18_linear_293_27786" x1="0" y1="0" x2="471.361" y2="265.137" gradientUnits="userSpaceOnUse"><stop stop-color="#5793C7"/><stop offset="1" stop-color="#1C4354"/></linearGradient><linearGradient id="paint19_linear_293_27786" x1="0" y1="0" x2="471.361" y2="265.137" gradientUnits="userSpaceOnUse"><stop stop-color="#5793C7"/><stop offset="1" stop-color="#1C4354"/></linearGradient><linearGradient id="paint20_linear_293_27786" x1="0" y1="0" x2="471.361" y2="265.137" gradientUnits="userSpaceOnUse"><stop stop-color="#5793C7"/><stop offset="1" stop-color="#1C4354"/></linearGradient><linearGradient id="paint21_linear_293_27786" x1="0" y1="0" x2="471.361" y2="265.137" gradientUnits="userSpaceOnUse"><stop stop-color="#5793C7"/><stop offset="1" stop-color="#1C4354"/></linearGradient><linearGradient id="paint22_linear_293_27786" x1="0" y1="0" x2="471.361" y2="265.137" gradientUnits="userSpaceOnUse"><stop stop-color="#5793C7"/><stop offset="1" stop-color="#1C4354"/></linearGradient><linearGradient id="paint23_linear_293_27786" x1="0" y1="0" x2="471.361" y2="265.137" gradientUnits="userSpaceOnUse"><stop stop-color="#5793C7"/><stop offset="1" stop-color="#1C4354"/></linearGradient><linearGradient id="paint24_linear_293_27786" x1="0" y1="0" x2="471.361" y2="265.137" gradientUnits="userSpaceOnUse"><stop stop-color="#5793C7"/><stop offset="1" stop-color="#1C4354"/></linearGradient><linearGradient id="paint25_linear_293_27786" x1="0" y1="0" x2="471.361" y2="265.137" gradientUnits="userSpaceOnUse"><stop stop-color="#5793C7"/><stop offset="1" stop-color="#1C4354"/></linearGradient><linearGradient id="paint26_linear_293_27786" x1="0" y1="0" x2="471.361" y2="265.137" gradientUnits="userSpaceOnUse"><stop stop-color="#5793C7"/><stop offset="1" stop-color="#1C4354"/></linearGradient><linearGradient id="paint27_linear_293_27786" x1="0" y1="0" x2="471.361" y2="265.137" gradientUnits="userSpaceOnUse"><stop stop-color="#5793C7"/><stop offset="1" stop-color="#1C4354"/></linearGradient><linearGradient id="paint28_linear_293_27786" x1="0" y1="0" x2="471.361" y2="265.137" gradientUnits="userSpaceOnUse"><stop stop-color="#5793C7"/><stop offset="1" stop-color="#1C4354"/></linearGradient><linearGradient id="paint29_linear_293_27786" x1="0" y1="0" x2="471.361" y2="265.137" gradientUnits="userSpaceOnUse"><stop stop-color="#5793C7"/><stop offset="1" stop-color="#1C4354"/></linearGradient><linearGradient id="paint30_linear_293_27786" x1="0" y1="0" x2="471.361" y2="265.137" gradientUnits="userSpaceOnUse"><stop stop-color="#5793C7"/><stop offset="1" stop-color="#1C4354"/></linearGradient><linearGradient id="paint31_linear_293_27786" x1="0" y1="0" x2="471.361" y2="265.137" gradientUnits="userSpaceOnUse"><stop stop-color="#5793C7"/><stop offset="1" stop-color="#1C4354"/></linearGradient><linearGradient id="paint32_linear_293_27786" x1="0" y1="0" x2="471.361" y2="265.137" gradientUnits="userSpaceOnUse"><stop stop-color="#5793C7"/><stop offset="1" stop-color="#1C4354"/></linearGradient><linearGradient id="paint33_linear_293_27786" x1="0" y1="0" x2="471.361" y2="265.137" gradientUnits="userSpaceOnUse"><stop stop-color="#5793C7"/><stop offset="1" stop-color="#1C4354"/></linearGradient><linearGradient id="paint34_linear_293_27786" x1="0" y1="0" x2="471.361" y2="265.137" gradientUnits="userSpaceOnUse"><stop stop-color="#5793C7"/><stop offset="1" stop-color="#1C4354"/></linearGradient><linearGradient id="paint35_linear_293_27786" x1="0" y1="0" x2="471.361" y2="265.137" gradientUnits="userSpaceOnUse"><stop stop-color="#5793C7"/><stop offset="1" stop-color="#1C4354"/></linearGradient><linearGradient id="paint36_linear_293_27786" x1="0" y1="0" x2="471.361" y2="265.137" gradientUnits="userSpaceOnUse"><stop stop-color="#5793C7"/><stop offset="1" stop-color="#1C4354"/></linearGradient><linearGradient id="paint37_linear_293_27786" x1="0" y1="0" x2="471.361" y2="265.137" gradientUnits="userSpaceOnUse"><stop stop-color="#5793C7"/><stop offset="1" stop-color="#1C4354"/></linearGradient><linearGradient id="paint38_linear_293_27786" x1="0" y1="0" x2="471.361" y2="265.137" gradientUnits="userSpaceOnUse"><stop stop-color="#5793C7"/><stop offset="1" stop-color="#1C4354"/></linearGradient><linearGradient id="paint39_linear_293_27786" x1="0" y1="0" x2="471.361" y2="265.137" gradientUnits="userSpaceOnUse"><stop stop-color="#5793C7"/><stop offset="1" stop-color="#1C4354"/></linearGradient><linearGradient id="paint40_linear_293_27786" x1="0" y1="0" x2="471.361" y2="265.137" gradientUnits="userSpaceOnUse"><stop stop-color="#5793C7"/><stop offset="1" stop-color="#1C4354"/></linearGradient><linearGradient id="paint41_linear_293_27786" x1="0" y1="0" x2="471.361" y2="265.137" gradientUnits="userSpaceOnUse"><stop stop-color="#5793C7"/><stop offset="1" stop-color="#1C4354"/></linearGradient><linearGradient id="paint42_linear_293_27786" x1="0" y1="0" x2="471.361" y2="265.137" gradientUnits="userSpaceOnUse"><stop stop-color="#5793C7"/><stop offset="1" stop-color="#1C4354"/></linearGradient><linearGradient id="paint43_linear_293_27786" x1="0" y1="0" x2="471.361" y2="265.137" gradientUnits="userSpaceOnUse"><stop stop-color="#5793C7"/><stop offset="1" stop-color="#1C4354"/></linearGradient><linearGradient id="paint44_linear_293_27786" x1="0" y1="0" x2="471.361" y2="265.137" gradientUnits="userSpaceOnUse"><stop stop-color="#5793C7"/><stop offset="1" stop-color="#1C4354"/></linearGradient><linearGradient id="paint45_linear_293_27786" x1="0" y1="0" x2="471.361" y2="265.137" gradientUnits="userSpaceOnUse"><stop stop-color="#5793C7"/><stop offset="1" stop-color="#1C4354"/></linearGradient><linearGradient id="paint46_linear_293_27786" x1="0" y1="0" x2="471.361" y2="265.137" gradientUnits="userSpaceOnUse"><stop stop-color="#5793C7"/><stop offset="1" stop-color="#1C4354"/></linearGradient><linearGradient id="paint47_linear_293_27786" x1="0" y1="0" x2="471.361" y2="265.137" gradientUnits="userSpaceOnUse"><stop stop-color="#5793C7"/><stop offset="1" stop-color="#1C4354"/></linearGradient><linearGradient id="paint48_linear_293_27786" x1="0" y1="0" x2="471.361" y2="265.137" gradientUnits="userSpaceOnUse"><stop stop-color="#5793C7"/><stop offset="1" stop-color="#1C4354"/></linearGradient><linearGradient id="paint49_linear_293_27786" x1="0" y1="0" x2="471.361" y2="265.137" gradientUnits="userSpaceOnUse"><stop stop-color="#5793C7"/><stop offset="1" stop-color="#1C4354"/></linearGradient><linearGradient id="paint50_linear_293_27786" x1="0" y1="0" x2="471.361" y2="265.137" gradientUnits="userSpaceOnUse"><stop stop-color="#5793C7"/><stop offset="1" stop-color="#1C4354"/></linearGradient><linearGradient id="paint51_linear_293_27786" x1="0" y1="0" x2="471.361" y2="265.137" gradientUnits="userSpaceOnUse"><stop stop-color="#5793C7"/><stop offset="1" stop-color="#1C4354"/></linearGradient><linearGradient id="paint52_linear_293_27786" x1="0" y1="0" x2="471.361" y2="265.137" gradientUnits="userSpaceOnUse"><stop stop-color="#5793C7"/><stop offset="1" stop-color="#1C4354"/></linearGradient><linearGradient id="paint53_linear_293_27786" x1="0" y1="0" x2="471.361" y2="265.137" gradientUnits="userSpaceOnUse"><stop stop-color="#5793C7"/><stop offset="1" stop-color="#1C4354"/></linearGradient></defs></svg>