<svg width="24" height="28" fill="none" xmlns="http://www.w3.org/2000/svg"><path d="M0 13.401h15.542v1H0v-1z" fill="url(#paint0_linear_235_20419)"/><path d="M17.372 15.117a1.216 1.216 0 111.216-1.215h1l-.01-.227a2.216 2.216 0 00-4.422.227l.012.226a2.216 2.216 0 004.42-.226h-1c0 .67-.544 1.215-1.216 1.215z" fill="url(#paint1_linear_235_20419)"/><path d="M21.778 9.338a1.216 1.216 0 111.216-1.215h1l-.01-.226a2.217 2.217 0 00-4.422.226l.012.227a2.216 2.216 0 004.42-.227h-1c0 .671-.544 1.215-1.216 1.215z" fill="url(#paint2_linear_235_20419)"/><path d="M0 10.167h11.166l2.432-2.372.145-.142h6.093v1H14.15l-2.43 2.371-.147.143H0v-1z" fill="url(#paint3_linear_235_20419)"/><path d="M0 17.645h11.166l2.432 2.37.145.143h6.093v-1H14.15l-2.43-2.37-.147-.143H0v1z" fill="url(#paint4_linear_235_20419)"/><path d="M21.778 18.354a1.216 1.216 0 101.216 1.215h1l-.01.227a2.217 2.217 0 01-4.422-.227l.012-.227a2.216 2.216 0 014.42.227h-1c0-.67-.544-1.215-1.216-1.215z" fill="url(#paint5_linear_235_20419)"/><path d="M16.622 3.43a1.216 1.216 0 111.216-1.214h1l-.01-.227a2.216 2.216 0 00-4.422.227l.012.226a2.216 2.216 0 004.42-.226h-1c0 .67-.544 1.215-1.216 1.215z" fill="url(#paint6_linear_235_20419)"/><path d="M0 7.033h12.317l3.45-3.33-.696-.718-3.158 3.048H0v1z" fill="url(#paint7_linear_235_20419)"/><path d="M0 20.815h12.317l3.45 3.329-.696.718-3.158-3.047H0v-1z" fill="url(#paint8_linear_235_20419)"/><path d="M16.622 24.262a1.216 1.216 0 101.216 1.215h1l-.01.226a2.216 2.216 0 01-4.422-.226l.012-.227a2.216 2.216 0 014.42.227h-1c0-.671-.544-1.215-1.216-1.215z" fill="url(#paint9_linear_235_20419)"/><defs><linearGradient id="paint0_linear_235_20419" x1="0" y1="13.901" x2="15.542" y2="13.875" gradientUnits="userSpaceOnUse"><stop stop-color="#F2F4F7"/><stop offset="1" stop-color="#5793C7"/></linearGradient><linearGradient id="paint1_linear_235_20419" x1="15.156" y1="13.901" x2="22.358" y2="13.901" gradientUnits="userSpaceOnUse"><stop stop-color="#5793C7"/><stop offset="1" stop-color="#2A4861"/></linearGradient><linearGradient id="paint2_linear_235_20419" x1="19.563" y1="8.123" x2="26.765" y2="8.123" gradientUnits="userSpaceOnUse"><stop stop-color="#5793C7"/><stop offset="1" stop-color="#2A4861"/></linearGradient><linearGradient id="paint3_linear_235_20419" x1="0" y1="9.41" x2="19.945" y2="9.35" gradientUnits="userSpaceOnUse"><stop stop-color="#F2F4F7"/><stop offset="1" stop-color="#5793C7"/></linearGradient><linearGradient id="paint4_linear_235_20419" x1="0" y1="18.401" x2="19.945" y2="18.462" gradientUnits="userSpaceOnUse"><stop stop-color="#F2F4F7"/><stop offset="1" stop-color="#5793C7"/></linearGradient><linearGradient id="paint5_linear_235_20419" x1="19.563" y1="19.569" x2="26.765" y2="19.569" gradientUnits="userSpaceOnUse"><stop stop-color="#5793C7"/><stop offset="1" stop-color="#2A4861"/></linearGradient><linearGradient id="paint6_linear_235_20419" x1="14.406" y1="2.215" x2="21.608" y2="2.215" gradientUnits="userSpaceOnUse"><stop stop-color="#5793C7"/><stop offset="1" stop-color="#2A4861"/></linearGradient><linearGradient id="paint7_linear_235_20419" x1="0" y1="4.939" x2="15.504" y2="4.967" gradientUnits="userSpaceOnUse"><stop stop-color="#F2F4F7"/><stop offset="1" stop-color="#5793C7"/></linearGradient><linearGradient id="paint8_linear_235_20419" x1="0" y1="22.909" x2="15.504" y2="22.88" gradientUnits="userSpaceOnUse"><stop stop-color="#F2F4F7"/><stop offset="1" stop-color="#5793C7"/></linearGradient><linearGradient id="paint9_linear_235_20419" x1="14.406" y1="25.477" x2="21.608" y2="25.477" gradientUnits="userSpaceOnUse"><stop stop-color="#5793C7"/><stop offset="1" stop-color="#2A4861"/></linearGradient></defs></svg>