<svg width="107" height="89" fill="none" xmlns="http://www.w3.org/2000/svg"><path d="M81.459 88.785V45.683l11.57-11.57" stroke="#fff" stroke-width="3"/><path d="M81.459 88.785V45.683l11.57-11.57" stroke="#fff" stroke-width="3"/><path d="M81.459 88.785V45.683l11.57-11.57M24.064 88.79V48.928l-11.23-11.23" stroke="#fff" stroke-width="3"/><path d="M24.064 88.79V48.928l-11.23-11.23" stroke="#fff" stroke-width="3"/><path d="M24.064 88.79V48.928l-11.23-11.23m52.888 51.086V51.7l10.182-10.182V19.596" stroke="#fff" stroke-width="3"/><path d="M65.722 88.784V51.7l10.182-10.182V19.596" stroke="#fff" stroke-width="3"/><path d="M65.722 88.784V51.7l10.182-10.182V19.596M52.87 88.786V35.209m0 53.577V35.209m0 53.577V35.209M9.222 88.785V57.917m0 30.868V57.917m0 30.868V57.917m.037-9.35a4.054 4.054 0 110 8.108 4.054 4.054 0 010-8.108zm87.843 1.147a4.054 4.054 0 110 8.108 4.054 4.054 0 010-8.108zm.123 39.072V58.98m0 29.806V58.98m0 29.806V58.98m.895-37.249a6.83 6.83 0 110 13.661 6.831 6.831 0 010-13.661zM75.903 5.07a6.83 6.83 0 110 13.662 6.83 6.83 0 010-13.661zM52.762 20.81a6.83 6.83 0 110 13.66 6.83 6.83 0 010-13.66zM39.804 88.786V50.774L29.622 40.593v-23.48" stroke="#fff" stroke-width="3"/><path d="M39.804 88.786V50.774L29.622 40.593v-23.48" stroke="#fff" stroke-width="3"/><path d="M39.804 88.786V50.774L29.622 40.593v-23.48m.002-14.823a6.83 6.83 0 110 13.661 6.83 6.83 0 010-13.661zM8.331 25.433a6.83 6.83 0 110 13.662 6.83 6.83 0 010-13.662z" stroke="#fff" stroke-width="3"/></svg>