<svg width="102" height="40" fill="none" xmlns="http://www.w3.org/2000/svg"><g clip-path="url(#clip0_1_864)"><mask id="a" style="mask-type:alpha" maskUnits="userSpaceOnUse" x="0" y="0" width="39" height="39"><g clip-path="url(#clip1_1_864)" fill="#ECF8F9"><path d="M0-2.583h38.66v10.31H0v-10.31zM0 8.758h38.66v10.31H0V8.757zm0 11.34h31.83v10.31H0v-10.31zm0 11.341h24.678v10.31H0v-10.31z"/></g></mask><g mask="url(#a)"><path d="M38.66 19.583c0 10.638-8.654 19.261-19.33 19.261C8.655 38.844 0 30.221 0 19.583S8.655.32 19.33.32c10.676 0 19.33 8.624 19.33 19.262z" fill="url(#paint0_linear_1_864)"/></g><path d="M10.503 25.233h14.175v14.125H10.503V25.233z" fill="#F60"/><path d="M24.678 25.233H10.503v14.125h14.175V25.233zm.516 14.639H9.987V24.719h15.207v15.153z" fill="#fff"/><path d="M17.72 17.657h14.175v14.125H17.72V17.657z" fill="#ECF8F9"/><path d="M31.895 17.657H17.72v14.125h14.175V17.657zm.516 14.638H17.204V17.143h15.207v15.152z" fill="#fff"/><path d="M25 10.787h14.176v14.125H25.001V10.787z" fill="#5793C7"/><path d="M39.176 10.787H25.001v14.125h14.175V10.787zm.516 14.638H24.485V10.273h15.207v15.152z" fill="#fff"/><path d="M84.863 4.327h16.586v3.186h-6.483V25.36h-3.62V7.513h-6.483V4.327zm-8.892 21.305c-1.387 0-2.654-.22-3.8-.662a7.79 7.79 0 01-2.894-1.953c-.784-.861-1.398-1.903-1.84-3.125-.442-1.242-.663-2.664-.663-4.266v-1.563c0-1.583.22-2.985.663-4.207.442-1.242 1.066-2.293 1.87-3.155a7.788 7.788 0 012.895-1.953c1.146-.46 2.402-.691 3.77-.691 1.226 0 2.331.18 3.316.54 1.005.361 1.87.852 2.594 1.473a7.166 7.166 0 011.749 2.134c.462.8.774 1.662.934 2.584h-3.98a5.937 5.937 0 00-.633-1.292 4.154 4.154 0 00-.965-1.082c-.382-.3-.825-.54-1.327-.721a4.975 4.975 0 00-1.689-.27c-1.608 0-2.915.55-3.92 1.652-.985 1.102-1.478 2.764-1.478 4.988v1.563c0 1.101.131 2.073.392 2.914.282.822.654 1.513 1.116 2.073a4.76 4.76 0 001.719 1.233c.663.28 1.387.42 2.171.42 1.227 0 2.232-.36 3.016-1.081.784-.722 1.317-1.683 1.598-2.885h3.98a9.533 9.533 0 01-.934 2.945 7.675 7.675 0 01-1.78 2.313 8.375 8.375 0 01-2.563 1.533c-.985.36-2.09.54-3.317.54zm-15.887-5.589h-7.992l-1.749 5.318h-3.8l7.54-21.034h4.221l7.54 21.034h-3.981l-1.78-5.318zm-6.936-3.185h5.88L57.52 12.26l-1.417-4.327-1.417 4.327-1.538 4.598zm44.638 18.804c-.372 0-.708-.054-1.01-.164a2.219 2.219 0 01-.764-.493 2.358 2.358 0 01-.484-.791 3.105 3.105 0 01-.165-1.048v-.329c0-.383.055-.73.165-1.037.117-.309.282-.569.495-.781.213-.22.467-.387.763-.503a2.761 2.761 0 011-.175c.653 0 1.158.16 1.515.483a2.2 2.2 0 01.701 1.253h-1.278a.818.818 0 00-.34-.452 1.139 1.139 0 00-.65-.175c-.151 0-.295.028-.433.083a.865.865 0 00-.35.246c-.104.11-.186.253-.248.432-.055.17-.082.38-.082.626v.329c0 .24.03.449.092.627.062.17.145.315.248.431a1.02 1.02 0 00.773.329c.296 0 .519-.065.67-.195a.953.953 0 00.32-.483h1.278c-.103.54-.337.976-.7 1.304-.358.322-.864.483-1.516.483zm-6.76-5.229h4.33v1.048h-1.567v4.089h-1.196v-4.09h-1.567v-1.048zm-1.712 3.041h-2.248v2.096H85.87v-5.137h1.196v1.993h2.248v-1.993h1.196v5.137h-1.196v-2.096zm-6.588 2.188a2.86 2.86 0 01-1-.164 2.217 2.217 0 01-.763-.493 2.276 2.276 0 01-.495-.791 3.105 3.105 0 01-.165-1.048v-.329c0-.39.055-.74.165-1.048a2.17 2.17 0 01.495-.78c.213-.22.467-.384.763-.493a2.708 2.708 0 011-.175c.749 0 1.34.23 1.773.688.433.46.65 1.116.65 1.973v.4h-3.65c.034.432.154.743.36.935.207.185.496.277.867.277.364 0 .629-.061.793-.184a.923.923 0 00.34-.453h1.238a2.44 2.44 0 01-.258.668 1.813 1.813 0 01-.464.534 2.25 2.25 0 01-.7.36 3.316 3.316 0 01-.95.123zm0-4.273c-.35 0-.626.085-.825.257-.2.17-.327.441-.382.811h2.413c-.048-.383-.175-.657-.382-.822-.199-.164-.474-.246-.824-.246zm-4.341 2.085h-2.248v2.096h-1.196v-5.137h1.196v1.993h2.248v-1.993h1.195v5.137h-1.195v-2.096zm-6.638 2.188c-.776 0-1.385-.219-1.825-.657-.433-.439-.65-1.051-.65-1.839v-.329c0-.39.056-.74.166-1.048a2.091 2.091 0 011.278-1.273 2.852 2.852 0 011.031-.175c.777 0 1.382.22 1.815.657.44.439.66 1.052.66 1.84v.328c0 .39-.059.74-.176 1.048a2.08 2.08 0 01-.495.79 2.18 2.18 0 01-.783.494 2.98 2.98 0 01-1.02.164zm0-1.11c.392 0 .69-.112.897-.338.213-.226.32-.575.32-1.048v-.329c0-.466-.11-.811-.33-1.037-.213-.233-.509-.35-.887-.35-.392 0-.694.113-.907.34-.206.225-.31.575-.31 1.047v.329c0 .466.107.815.32 1.048.22.226.52.339.897.339zm-4.387-3.071h-2.042v4.089h-1.195v-5.137h4.433v5.137H67.36v-4.09zm-8.337 1.418l-.403-.986v3.657h-1.195v-5.137h1.71l1.145 2.682 1.165-2.682h1.65v5.137h-1.196v-3.657l-.402.986-.64 1.49h-1.195l-.64-1.49zm-4.793 2.763c-.776 0-1.384-.219-1.824-.657-.433-.439-.65-1.051-.65-1.839v-.329c0-.39.055-.74.165-1.048a2.095 2.095 0 011.279-1.273 2.852 2.852 0 011.03-.175c.777 0 1.382.22 1.815.657.44.439.66 1.052.66 1.84v.328c0 .39-.059.74-.175 1.048a2.08 2.08 0 01-.495.79 2.18 2.18 0 01-.784.494 2.98 2.98 0 01-1.02.164zm0-1.11c.392 0 .691-.112.898-.338.213-.226.32-.575.32-1.048v-.329c0-.466-.11-.811-.33-1.037-.214-.233-.51-.35-.887-.35-.392 0-.695.113-.908.34-.206.225-.309.575-.309 1.047v.329c0 .466.107.815.32 1.048.22.226.519.339.897.339z" fill="#144F89"/><path d="M49.032 33.423h-.515v2.147H47.32v-5.137h1.196v1.942h.515l1.237-1.942h1.382l-1.63 2.425 1.836 2.712h-1.443l-1.382-2.147z" fill="#144F89"/></g><defs><clipPath id="clip0_1_864"><path fill="#fff" d="M0 0h102v40H0z"/></clipPath><clipPath id="clip1_1_864"><rect y=".321" width="38.661" height="38.523" rx="19.262" fill="#fff"/></clipPath><linearGradient id="paint0_linear_1_864" x1="8.666" y1="2.921" x2="28.379" y2="34.574" gradientUnits="userSpaceOnUse"><stop stop-color="#5793C7"/><stop offset="1" stop-color="#144F89"/></linearGradient></defs></svg>