<?xml version="1.0" encoding="UTF-8"?>
<svg version="1.1" xmlns="http://www.w3.org/2000/svg" width="285" height="285">
<path d="M0 0 C0.99 0 1.98 0 3 0 C4.17176518 2.12232979 5.33754785 4.24757791 6.5 6.375 C6.83386719 6.97828125 7.16773437 7.5815625 7.51171875 8.203125 C10 12.7734375 10 12.7734375 10 15 C10.66 15 11.32 15 12 15 C12.99 17.97 12.99 17.97 14 21 C14.66 21 15.32 21 16 21 C16.66 18.69 17.32 16.38 18 14 C19.32 14.33 20.64 14.66 22 15 C22 15.99 22 16.98 22 18 C23.485 18.495 23.485 18.495 25 19 C25.66666667 21.33333333 26.33333333 23.66666667 27 26 C28.485 26.495 28.485 26.495 30 27 C31.88579937 30.21284338 33 32.24633583 33 36 C33.66 36 34.32 36 35 36 C35.67408308 37.26691507 36.33900497 38.53870749 37 39.8125 C37.37125 40.52019531 37.7425 41.22789063 38.125 41.95703125 C39 44 39 44 39 47 C39.66 47 40.32 47 41 47 C50 63.36893204 50 63.36893204 50 66 C51.485 66.495 51.485 66.495 53 67 C53.84375 68.7421875 53.84375 68.7421875 54.5 70.875 C55.26257639 73.3352167 55.70587609 74.72173571 57.59375 76.5078125 C59 78 59 78 59 82 C33.26 82 7.52 82 -19 82 C-19 78.86152691 -18.51037331 77.61540997 -17.125 74.875 C-16.60292969 73.81925781 -16.60292969 73.81925781 -16.0703125 72.7421875 C-15 71 -15 71 -13 70 C-11.87293294 67.88984046 -11.87293294 67.88984046 -10.875 65.4375 C-10.52179688 64.61121094 -10.16859375 63.78492188 -9.8046875 62.93359375 C-9.53914063 62.29550781 -9.27359375 61.65742188 -9 61 C-8.34 61 -7.68 61 -7 61 C-6.79375 60.05125 -6.5875 59.1025 -6.375 58.125 C-4.91069252 52.89838425 -1.8580664 48.55790764 1 44 C1.495 43.01 1.495 43.01 2 42 C1.01 42 0.02 42 -1 42 C-1.28875 43.093125 -1.5775 44.18625 -1.875 45.3125 C-3 49 -3 49 -5 52 C-5.66 52 -6.32 52 -7 52 C-7.103125 52.515625 -7.20625 53.03125 -7.3125 53.5625 C-8.24263866 56.86026435 -9.61395512 59.86633332 -11 63 C-11.66 63 -12.32 63 -13 63 C-13.103125 63.53625 -13.20625 64.0725 -13.3125 64.625 C-14.18092697 67.62502044 -15.55620296 70.2379535 -17 73 C-17.66 73 -18.32 73 -19 73 C-19.99 75.97 -20.98 78.94 -22 82 C-22.66 82 -23.32 82 -24 82 C-24 82.66 -24 83.32 -24 84 C-2.55 84 18.9 84 41 84 C45 93 45 93 45 95 C45.66 95 46.32 95 47 95 C47.69965443 96.26418246 48.38434763 97.53665402 49.0625 98.8125 C49.44535156 99.52019531 49.82820313 100.22789062 50.22265625 100.95703125 C51 103 51 103 50 106 C14.03 106 -21.94 106 -59 106 C-59 100.33576642 -59 100.33576642 -57.125 96.75 C-56.77695312 96.06421875 -56.42890625 95.3784375 -56.0703125 94.671875 C-55 93 -55 93 -53 92 C-51.87293294 89.88984046 -51.87293294 89.88984046 -50.875 87.4375 C-50.52179687 86.61121094 -50.16859375 85.78492188 -49.8046875 84.93359375 C-49.53914063 84.29550781 -49.27359375 83.65742188 -49 83 C-48.34 83 -47.68 83 -47 83 C-46.71125 81.9275 -46.4225 80.855 -46.125 79.75 C-45.27179891 76.90599636 -44.4363497 74.56491017 -43 72 C-42.34 72 -41.68 72 -41 72 C-40.690625 71.05125 -40.38125 70.1025 -40.0625 69.125 C-39 66 -39 66 -38 64 C-37.34 64 -36.68 64 -36 64 C-35.896875 63.484375 -35.79375 62.96875 -35.6875 62.4375 C-34.75521003 59.13210828 -33.46401496 56.10371171 -32 53 C-31.01 52.505 -31.01 52.505 -30 52 C-28.87293294 49.88984046 -28.87293294 49.88984046 -27.875 47.4375 C-27.52179687 46.61121094 -27.16859375 45.78492188 -26.8046875 44.93359375 C-26.53914063 44.29550781 -26.27359375 43.65742187 -26 43 C-25.34 43 -24.68 43 -24 43 C-23.71125 42.113125 -23.4225 41.22625 -23.125 40.3125 C-22.16851252 37.49617576 -21.13201054 34.74916844 -20 32 C-19.34 32 -18.68 32 -18 32 C-17.690625 31.05125 -17.38125 30.1025 -17.0625 29.125 C-16 26 -16 26 -15 24 C-14.34 24 -13.68 24 -13 24 C-12.896875 23.29875 -12.79375 22.5975 -12.6875 21.875 C-11.89945728 18.57954861 -10.67130238 15.94149219 -9 13 C-8.34 12.67 -7.68 12.34 -7 12 C-5.87293294 9.88984046 -5.87293294 9.88984046 -4.875 7.4375 C-4.52179688 6.61121094 -4.16859375 5.78492187 -3.8046875 4.93359375 C-3.53914063 4.29550781 -3.27359375 3.65742187 -3 3 C-2.34 3 -1.68 3 -1 3 C-0.67 2.01 -0.34 1.02 0 0 Z " fill="#273747" transform="translate(80,74)"/>
<path d="M0 0 C1.07628662 0.00424484 2.15257324 0.00848969 3.26147461 0.01286316 C6.6745787 0.0295585 10.08707655 0.06719432 13.5 0.10546875 C15.82421018 0.12052738 18.14842968 0.13421372 20.47265625 0.14648438 C26.14866851 0.17943216 31.82423172 0.23115157 37.5 0.29296875 C37.5 6.89296875 37.5 13.49296875 37.5 20.29296875 C34.44234375 20.35355469 31.3846875 20.41414063 28.234375 20.4765625 C25.27227359 20.5383748 22.31020954 20.60175303 19.34814453 20.6652832 C17.28991013 20.70858884 15.23164082 20.75026704 13.17333984 20.7902832 C10.21441121 20.8480915 7.2556576 20.91175571 4.296875 20.9765625 C3.37694763 20.99327499 2.45702026 21.00998749 1.50921631 21.02720642 C0.6486261 21.04715164 -0.21196411 21.06709686 -1.09863281 21.08764648 C-1.85364075 21.10319077 -2.60864868 21.11873505 -3.38653564 21.13475037 C-5.52479671 21.29482508 -7.43989084 21.71113243 -9.5 22.29296875 C-9.5 23.28296875 -9.5 24.27296875 -9.5 25.29296875 C-10.16 25.29296875 -10.82 25.29296875 -11.5 25.29296875 C-11.5 27.27296875 -11.5 29.25296875 -11.5 31.29296875 C-10.18 31.95296875 -8.86 32.61296875 -7.5 33.29296875 C-7.5 33.95296875 -7.5 34.61296875 -7.5 35.29296875 C-4.53 36.28296875 -1.56 37.27296875 1.5 38.29296875 C1.5 38.95296875 1.5 39.61296875 1.5 40.29296875 C2.86125 40.72609375 2.86125 40.72609375 4.25 41.16796875 C6.82202908 42.05828651 9.11346766 43.00791288 11.5 44.29296875 C11.5 44.95296875 11.5 45.61296875 11.5 46.29296875 C12.86125 46.72609375 12.86125 46.72609375 14.25 47.16796875 C16.82202908 48.05828651 19.11346766 49.00791288 21.5 50.29296875 C21.5 50.95296875 21.5 51.61296875 21.5 52.29296875 C22.03625 52.35484375 22.5725 52.41671875 23.125 52.48046875 C27.96470862 54.13615854 30.85605533 57.19826281 33.375 61.48046875 C34.5 64.29296875 34.5 64.29296875 34.5 66.29296875 C35.16 66.29296875 35.82 66.29296875 36.5 66.29296875 C38.19423409 72.6463466 38.19423409 79.9395909 36.5 86.29296875 C35.84 86.29296875 35.18 86.29296875 34.5 86.29296875 C34.396875 87.01484375 34.29375 87.73671875 34.1875 88.48046875 C32.841393 93.9872701 29.70275271 97.59054375 25.5 101.29296875 C22.51048377 102.78772687 20.8530811 103.29296875 17.5 103.29296875 C17.5 103.95296875 17.5 104.61296875 17.5 105.29296875 C13.4247366 106.0607335 9.58994553 106.41198909 5.4453125 106.390625 C4.33671875 106.38740234 3.228125 106.38417969 2.0859375 106.38085938 C0.94382813 106.37248047 -0.19828125 106.36410156 -1.375 106.35546875 C-2.5403125 106.35095703 -3.705625 106.34644531 -4.90625 106.34179688 C-7.77088645 106.33005656 -10.63541633 106.31363445 -13.5 106.29296875 C-14.17154933 105.00383388 -14.83708859 103.71156671 -15.5 102.41796875 C-15.87125 101.69867188 -16.2425 100.979375 -16.625 100.23828125 C-17.5 98.29296875 -17.5 98.29296875 -17.5 96.29296875 C-18.49 95.96296875 -19.48 95.63296875 -20.5 95.29296875 C-21.6328125 93.515625 -21.6328125 93.515625 -22.625 91.35546875 C-22.95757812 90.64519531 -23.29015625 89.93492187 -23.6328125 89.203125 C-23.91898438 88.57277344 -24.20515625 87.94242187 -24.5 87.29296875 C-24.83 86.63296875 -25.16 85.97296875 -25.5 85.29296875 C-22.40647345 83.74620548 -19.1176884 84.07332485 -15.71875 84.01171875 C-14.94946167 83.99330933 -14.18017334 83.9748999 -13.38757324 83.95593262 C-10.09006804 83.87716975 -6.79235519 83.80949224 -3.49462891 83.74072266 C-1.09006596 83.68901673 1.31432073 83.63175785 3.71875 83.57421875 C4.84222839 83.55385559 4.84222839 83.55385559 5.98840332 83.53308105 C9.87243072 83.50823433 9.87243072 83.50823433 13.5 82.29296875 C14.04539615 80.30796428 14.04539615 80.30796428 14.25 77.98046875 C14.34796875 77.20058594 14.4459375 76.42070312 14.546875 75.6171875 C14.49308188 72.94994528 13.96898195 71.50636723 12.5 69.29296875 C10.18149993 68.67864006 10.18149993 68.67864006 7.5 68.29296875 C5.47762948 67.33902039 3.4717304 66.34761524 1.5 65.29296875 C1.5 64.63296875 1.5 63.97296875 1.5 63.29296875 C0.984375 63.18984375 0.46875 63.08671875 -0.0625 62.98046875 C-3.36789172 62.04817878 -6.39628829 60.75698371 -9.5 59.29296875 C-9.83 58.63296875 -10.16 57.97296875 -10.5 57.29296875 C-12.80965848 56.23944032 -15.1429774 55.23577779 -17.5 54.29296875 C-17.5 53.63296875 -17.5 52.97296875 -17.5 52.29296875 C-18.2425 52.04546875 -18.985 51.79796875 -19.75 51.54296875 C-23.90370476 49.65492113 -25.99764772 47.04649717 -28.5 43.29296875 C-28.5 42.30296875 -28.5 41.31296875 -28.5 40.29296875 C-29.16 40.29296875 -29.82 40.29296875 -30.5 40.29296875 C-33.27076773 32.32701153 -33.67537096 24.23139616 -30.5 16.29296875 C-26.29730553 8.85254893 -22.11973987 3.92217932 -13.89990234 0.92367554 C-9.32061073 -0.27978606 -4.70450782 -0.07068623 0 0 Z " fill="#273747" transform="translate(153.5,73.70703125)"/>
<path d="M0 0 C22.44 0 44.88 0 68 0 C68 6.6 68 13.2 68 20 C60.41 20 52.82 20 45 20 C45 48.38 45 76.76 45 106 C38.07 106 31.14 106 24 106 C24 77.62 24 49.24 24 20 C16.08 20 8.16 20 0 20 C0 13.4 0 6.8 0 0 Z " fill="#273747" transform="translate(195,74)"/>
<path d="M0 0 C1.32 0.33 2.64 0.66 4 1 C4 1.99 4 2.98 4 4 C4.99 4.33 5.98 4.66 7 5 C7.66666667 7.33333333 8.33333333 9.66666667 9 12 C9.99 12.33 10.98 12.66 12 13 C13.88579937 16.21284338 15 18.24633583 15 22 C15.66 22 16.32 22 17 22 C17.67408308 23.26691507 18.33900497 24.53870749 19 25.8125 C19.37125 26.52019531 19.7425 27.22789063 20.125 27.95703125 C21 30 21 30 21 33 C21.66 33 22.32 33 23 33 C32 49.36893204 32 49.36893204 32 52 C33.485 52.495 33.485 52.495 35 53 C35.84375 54.7421875 35.84375 54.7421875 36.5 56.875 C37.26257639 59.3352167 37.70587609 60.72173571 39.59375 62.5078125 C41 64 41 64 41 68 C15.26 68 -10.48 68 -37 68 C-37 64.86152691 -36.51037331 63.61540997 -35.125 60.875 C-34.77695312 60.17117187 -34.42890625 59.46734375 -34.0703125 58.7421875 C-33 57 -33 57 -31 56 C-29.87293294 53.88984046 -29.87293294 53.88984046 -28.875 51.4375 C-28.52179688 50.61121094 -28.16859375 49.78492188 -27.8046875 48.93359375 C-27.53914063 48.29550781 -27.27359375 47.65742188 -27 47 C-26.34 47 -25.68 47 -25 47 C-24.814375 46.071875 -24.62875 45.14375 -24.4375 44.1875 C-22.86419648 38.52360734 -19.25746776 33.81652319 -16 29 C-12.17116063 30.27627979 -11.98203927 31.41268871 -10.1875 34.9375 C-8.20127119 38.73788334 -6.16835778 42.4624835 -3.9375 46.125 C-1.95822902 49.39419164 -0.01027374 52.67554546 1.875 56 C2.28492188 56.721875 2.69484375 57.44375 3.1171875 58.1875 C4 60 4 60 4 62 C11.26 62 18.52 62 26 62 C23.13445064 56.83393918 20.26736468 51.66883485 17.39453125 46.50683594 C16.49263338 44.88556715 15.591537 43.26385213 14.69140625 41.64160156 C13.48466457 39.46777484 12.27408601 37.29612954 11.0625 35.125 C10.69777588 34.46628906 10.33305176 33.80757812 9.95727539 33.12890625 C8.1527122 29.90433823 6.23312981 26.93705116 4 24 C0.77205415 18.56259503 -2.34065599 13.13957282 -4 7 C-3.34 7 -2.68 7 -2 7 C-1.34 4.69 -0.68 2.38 0 0 Z " fill="#4EAF6C" transform="translate(98,88)"/>
<path d="M0 0 C3.3 0 6.6 0 10 0 C10 0.66 10 1.32 10 2 C10.99 2 11.98 2 13 2 C12.814375 2.639375 12.62875 3.27875 12.4375 3.9375 C12.293125 4.618125 12.14875 5.29875 12 6 C12.33 6.33 12.66 6.66 13 7 C13.07244053 9.01964199 13.08377188 11.04167124 13.0625 13.0625 C13.05347656 14.16722656 13.04445313 15.27195313 13.03515625 16.41015625 C13.02355469 17.26480469 13.01195313 18.11945313 13 19 C2.30490405 19.61407249 2.30490405 19.61407249 -2.1875 17.5 C-4.65445514 14.09730326 -5.30644534 11.1825648 -5 7 C-3.6875 4 -3.6875 4 -2 2 C-1.34 2 -0.68 2 0 2 C0 1.34 0 0.68 0 0 Z M3 5 C7 6 7 6 7 6 Z M0 7 C0 8.32 0 9.64 0 11 C0.66 11 1.32 11 2 11 C2.33 11.99 2.66 12.98 3 14 C4.65 14 6.3 14 8 14 C8 13.34 8 12.68 8 12 C6.35 12 4.7 12 3 12 C3 10.02 3 8.04 3 6 C1.7763932 5.9254644 1.7763932 5.9254644 0 7 Z " fill="#243847" transform="translate(50,193)"/>
<path d="M0 0 C2.3828125 0.34375 2.3828125 0.34375 4.9453125 1.90625 C7.32859315 5.94746501 7.83282576 9.54369695 6.6953125 14.09375 C5.12321126 16.7887807 4.18993256 17.94018997 1.3828125 19.34375 C-3.21525056 19.8546459 -5.47754961 19.94994037 -9.5546875 17.78125 C-12.25720785 14.58736231 -12.54435362 12.49528123 -12.6171875 8.34375 C-10.61598305 1.00600035 -7.16208767 -0.25056866 0 0 Z M-4.6171875 5.34375 C-5.2771875 6.00375 -5.9371875 6.66375 -6.6171875 7.34375 C-6.29519784 10.44301819 -6.29519784 10.44301819 -5.6171875 13.34375 C-3.9671875 13.67375 -2.3171875 14.00375 -0.6171875 14.34375 C1.71672453 11.56260944 1.71672453 11.56260944 1.0078125 8.65625 C0.8015625 7.893125 0.5953125 7.13 0.3828125 6.34375 C-2.01438182 5.66416397 -2.01438182 5.66416397 -4.6171875 5.34375 Z " fill="#243847" transform="translate(144.6171875,192.65625)"/>
<path d="M0 0 C3.96 0 7.92 0 12 0 C12 0.66 12 1.32 12 2 C12.99 2.33 13.98 2.66 15 3 C15.625 5.8125 15.625 5.8125 16 9 C15.01 10.485 15.01 10.485 14 12 C13.34 12 12.68 12 12 12 C12 12.66 12 13.32 12 14 C12.99 14.33 13.98 14.66 15 15 C15 16.32 15 17.64 15 19 C12.625 19.1875 12.625 19.1875 10 19 C9.34 18.01 8.68 17.02 8 16 C5.94074861 15.27617533 5.94074861 15.27617533 4 15 C4 16.32 4 17.64 4 19 C2.68 19 1.36 19 0 19 C0 12.73 0 6.46 0 0 Z M4 5 C4 6.32 4 7.64 4 9 C5.98 9 7.96 9 10 9 C9.67 7.68 9.34 6.36 9 5 C7.35 5 5.7 5 4 5 Z " fill="#273746" transform="translate(90,193)"/>
<path d="M0 0 C1.65322266 0.01740234 1.65322266 0.01740234 3.33984375 0.03515625 C4.99693359 0.04869141 4.99693359 0.04869141 6.6875 0.0625 C7.54214844 0.07410156 8.39679688 0.08570313 9.27734375 0.09765625 C9.27734375 0.75765625 9.27734375 1.41765625 9.27734375 2.09765625 C10.26734375 2.42765625 11.25734375 2.75765625 12.27734375 3.09765625 C13.40234375 8.72265625 13.40234375 8.72265625 12.27734375 12.09765625 C8.86252372 14.65877128 6.5292584 15.46210608 2.27734375 15.09765625 C2.27734375 16.41765625 2.27734375 17.73765625 2.27734375 19.09765625 C0.29734375 19.09765625 -1.68265625 19.09765625 -3.72265625 19.09765625 C-3.74949612 16.11843032 -3.76941662 13.1394433 -3.78515625 10.16015625 C-3.79353516 9.31001953 -3.80191406 8.45988281 -3.81054688 7.58398438 C-3.81376953 6.77509766 -3.81699219 5.96621094 -3.8203125 5.1328125 C-3.82554932 4.38394775 -3.83078613 3.63508301 -3.83618164 2.86352539 C-3.64543995 -0.10343085 -2.98420031 0.10703731 0 0 Z M2.27734375 5.09765625 C2.27734375 6.41765625 2.27734375 7.73765625 2.27734375 9.09765625 C3.92734375 9.09765625 5.57734375 9.09765625 7.27734375 9.09765625 C6.94734375 7.77765625 6.61734375 6.45765625 6.27734375 5.09765625 C4.95734375 5.09765625 3.63734375 5.09765625 2.27734375 5.09765625 Z " fill="#273747" transform="translate(224.72265625,192.90234375)"/>
<path d="M0 0 C1.66611905 -0.042721 3.33382885 -0.04063832 5 0 C6.81115956 1.81115956 6.38199448 4.61278227 6.5625 7.0625 C6.64628906 8.16722656 6.73007813 9.27195313 6.81640625 10.41015625 C6.87699219 11.26480469 6.93757812 12.11945313 7 13 C8.32 13 9.64 13 11 13 C11.33 8.71 11.66 4.42 12 0 C13.32 0 14.64 0 16 0 C16.10826289 2.4178712 16.18739789 4.83087556 16.25 7.25 C16.30027344 8.27287109 16.30027344 8.27287109 16.3515625 9.31640625 C16.41839759 12.75841326 16.26198821 14.64232914 14.203125 17.453125 C10.98794888 19.71058909 8.83214687 19.54744955 5 19 C1.80732761 16.64750455 0.69354824 14.82461556 0 11 C-0.06688591 9.08438746 -0.08531719 7.16664408 -0.0625 5.25 C-0.05347656 4.26515625 -0.04445312 3.2803125 -0.03515625 2.265625 C-0.02355469 1.51796875 -0.01195312 0.7703125 0 0 Z " fill="#253544" transform="translate(178,193)"/>
</svg>
