<?xml version="1.0" encoding="utf-8"?><svg viewBox="0 0 32 24" xmlns="http://www.w3.org/2000/svg" xmlns:xlink="http://www.w3.org/1999/xlink"><style>:root>svg{display:none}:root>svg:target{display:block}</style><svg viewBox="0 0 24 24" id="arrow-right" xmlns="http://www.w3.org/2000/svg"><path d="M4 10.914h11.586l-4.5-4.5L12.5 5l6.914 6.914-6.914 6.914-1.414-1.414 4.5-4.5H4v-2Z"/></svg><svg viewBox="0 0 24 24" id="arrow-right-circle" xmlns="http://www.w3.org/2000/svg"><path d="M3 12a9 9 0 1 1 18 0 9 9 0 0 1-18 0Zm9-11C5.925 1 1 5.925 1 12s4.925 11 11 11 11-4.925 11-11S18.075 1 12 1ZM6.5 13h7.586l-3 3 1.414 1.414L17.914 12 12.5 6.586 11.086 8l3 3H6.5v2Z"/></svg><svg viewBox="0 0 24 24" id="arrow-top" xmlns="http://www.w3.org/2000/svg"><path d="M11 19.5V7.914l-4.5 4.5L5.086 11 12 4.086 18.914 11 17.5 12.414l-4.5-4.5V19.5h-2Z"/></svg><svg viewBox="0 0 24 24" id="back" xmlns="http://www.w3.org/2000/svg"><path d="M19 13a5 5 0 0 0-5-5H6.914l2.5 2.5L8 11.914 3.086 7 8 2.086 9.414 3.5 6.914 6H14a7 7 0 1 1 0 14H5.5v-2H14a5 5 0 0 0 5-5Z"/></svg><svg viewBox="0 0 24 24" id="box" xmlns="http://www.w3.org/2000/svg"><path d="m21.485 6.126.515.285V17.59l-.515.285L12 23.144l-9.485-5.27L2 17.589V6.41l.515-.285L12 .856l9.485 5.27ZM4 16.411l7 3.89v-7.7L4 8.897v7.515Zm9-3.81v7.7l7-3.89V8.896l-7 3.706ZM4.88 7.1 12 10.87l7.12-3.77L12 3.144 4.88 7.099Z"/></svg><svg viewBox="0 0 24 24" id="box-empty" xmlns="http://www.w3.org/2000/svg"><path fill-rule="evenodd" clip-rule="evenodd" d="M11.084 3.244a3 3 0 0 1 1.607-.063l.225.063L19.45 5.34c.19.063.361.181.486.346l.07.105 2.75 4.747a1.001 1.001 0 0 1-.44 1.407l-.12.047-2.05.658v4.33a2 2 0 0 1-1.238 1.848l-.152.056-5.84 1.872a3 3 0 0 1-1.607.063l-.225-.062-5.84-1.873a2 2 0 0 1-1.382-1.743l-.007-.162V12.65l-2.051-.658a1 1 0 0 1-.617-1.338l.057-.116 2.75-4.747a1 1 0 0 1 .445-.406l.11-.045 6.535-2.096ZM13 12.305v6.324l5.145-1.65v-3.687l-3.09.991a1 1 0 0 1-1.106-.353l-.064-.098L13 12.305Zm-2 0-.885 1.527a1 1 0 0 1-1.17.451l-3.09-.991v3.687L11 18.63v-6.325ZM5.32 7.49l-1.723 2.977 5.191 1.666 1.725-2.977L5.32 7.49Zm13.36 0-5.193 1.666 1.724 2.977 5.192-1.666L18.68 7.49Zm-6.375-2.342a1 1 0 0 0-.49-.03l-.12.03L8.13 6.292 12 7.533l3.87-1.241-3.565-1.144Z"/></svg><svg viewBox="0 0 32 12" id="breadcrumb-separator" xmlns="http://www.w3.org/2000/svg"><path d="M0 5h20v2H0V5Z"/><path d="M30 6a4 4 0 1 0-4 4v2a6 6 0 1 1 0-12 6 6 0 0 1 0 12v-2a4 4 0 0 0 4-4Z"/></svg><svg viewBox="0 0 24 24" id="calculation" xmlns="http://www.w3.org/2000/svg"><path d="M1 1h22v22H1V1Zm2 2v18h18V3H3Zm6 2v2h2v2H9v2H7V9H5V7h2V5h2Zm4 2h6v2h-6V7Zm-6.414 6.172L8 14.586l1.414-1.414 1.414 1.414L9.414 16l1.415 1.414-1.415 1.415L8 17.414 6.586 18.83 5.17 17.414 6.586 16l-1.414-1.414 1.414-1.414ZM13 13.5h6v2h-6v-2Zm0 3h6v2h-6v-2Z"/></svg><svg viewBox="0 0 24 24" id="cancel" xmlns="http://www.w3.org/2000/svg"><path d="M12 2c5.5 0 10 4.5 10 10s-4.5 10-10 10S2 17.5 2 12 6.5 2 12 2Zm0 2c-1.9 0-3.6.6-4.9 1.7l11.2 11.2c1-1.4 1.7-3.1 1.7-4.9 0-4.4-3.6-8-8-8Zm4.9 14.3L5.7 7.1C4.6 8.4 4 10.1 4 12c0 4.4 3.6 8 8 8 1.9 0 3.6-.6 4.9-1.7Z"/></svg><svg viewBox="0 0 24 24" id="card" xmlns="http://www.w3.org/2000/svg"><path d="M23 3v18H1V3h22ZM3 19h18v-8H3v8Zm7-5v2H5v-2h5ZM3 9h18V5H3v4Z"/></svg><svg viewBox="0 0 24 24" id="cart" xmlns="http://www.w3.org/2000/svg"><path d="M0 1h4.764l.545 2h18.078l-3.666 11H7.78l-.5 2H22v2H4.72l1.246-4.989L3.236 3H0V1Zm7.764 11h10.515l2.334-7H5.855l1.909 7ZM4 21a2 2 0 1 1 4 0 2 2 0 0 1-4 0Zm14 0a2 2 0 1 1 4 0 2 2 0 0 1-4 0Z"/></svg><svg viewBox="0 0 24 24" id="cart-add" xmlns="http://www.w3.org/2000/svg"><path d="M4 21a2 2 0 1 1 4 0 2 2 0 0 1-4 0Zm14 0a2 2 0 1 1 4 0 2 2 0 0 1-4 0ZM4.764 1l3 11h10.515l3.088-9.265 1.898.632L19.72 14H7.78l-.5 2H22v2H4.719l1.247-4.988L3.236 3H0V1h4.764ZM12 7H9V5h3V2h2v3h3v2h-3v3h-2V7Z"/></svg><svg viewBox="0 0 24 24" id="catalog" xmlns="http://www.w3.org/2000/svg"><path d="M2 2h9v9H2V2Zm2 2v5h5V4H4Zm9-2h9v9h-9V2Zm2 2v5h5V4h-5ZM2 13h9v9H2v-9Zm2 2v5h5v-5H4Zm9-2h9v9h-9v-9Zm2 2v5h5v-5h-5Z"/></svg><svg viewBox="0 0 24 24" id="chat" xmlns="http://www.w3.org/2000/svg"><path d="M12 3a9 9 0 0 0-9 9c0 2.397.935 4.573 2.463 6.186l.504.532L4.7 21H12a9 9 0 0 0 0-18ZM1 12C1 5.925 5.925 1 12 1s11 4.925 11 11-4.925 11-11 11H1.3l2.22-3.994A10.96 10.96 0 0 1 1 12Zm7-3h8v2H8V9Zm0 4h6v2H8v-2Z"/></svg><svg viewBox="0 0 24 24" id="check" xmlns="http://www.w3.org/2000/svg"><path d="M20.985 7.378 10.379 17.985l-6.364-6.364 1.414-1.414 4.95 4.95 9.19-9.193 1.416 1.414Z"/></svg><svg viewBox="0 0 24 24" id="check-circle" xmlns="http://www.w3.org/2000/svg"><path d="M21 12a9 9 0 0 0-9-9 9 9 0 0 0-9 9 9 9 0 0 0 9 9 9 9 0 0 0 9-9Zm2 0c0 6.075-4.925 11-11 11S1 18.075 1 12 5.925 1 12 1s11 4.925 11 11Z"/><path d="M17.914 9 10.5 16.414 6.086 12 7.5 10.586l3 3 6-6L17.914 9Z"/></svg><svg viewBox="0 0 24 24" id="chevron-down" xmlns="http://www.w3.org/2000/svg"><path d="M18.364 8 12 14.604 5.636 8 4 9.698 12 18l8-8.302L18.364 8Z"/></svg><svg viewBox="0 0 24 24" id="chevron-down-grey" xmlns="http://www.w3.org/2000/svg"><path d="M18.364 8 12 14.604 5.636 8 4 9.698 12 18l8-8.302L18.364 8Z" fill="#B0BEC5"/></svg><svg viewBox="0 0 24 24" id="chevron-left" xmlns="http://www.w3.org/2000/svg"><path d="m16.278 18.5-5.5-5.5 5.5-5.5-1.414-1.414L7.95 13l6.914 6.914 1.414-1.414Z"/></svg><svg viewBox="0 0 24 24" id="chevron-right" xmlns="http://www.w3.org/2000/svg"><path d="m8.086 18.5 5.5-5.5-5.5-5.5L9.5 6.086 16.414 13 9.5 19.914 8.086 18.5Z"/></svg><svg viewBox="0 0 24 24" id="chevron-up" xmlns="http://www.w3.org/2000/svg"><path d="M5.636 18 12 11.396 18.364 18 20 16.302 12 8l-8 8.302L5.636 18Z"/></svg><svg viewBox="0 0 24 24" id="claims" xmlns="http://www.w3.org/2000/svg"><g clip-path="url(#ava)"><path d="M12 .998a2.5 2.5 0 0 1 2.213 1.338l.079.164H20.5v19h-17v-19h6.208l.08-.164a2.5 2.5 0 0 1 .693-.824l.149-.104A2.5 2.5 0 0 1 12 .998Zm0 1a1.5 1.5 0 0 0-1.375.902l-.262.6H4.5v17h15v-17h-5.863l-.262-.6A1.501 1.501 0 0 0 12 1.998Z"/><path d="M12-.002A3.5 3.5 0 0 1 14.871 1.5H21.5v21h-19v-21h6.629A3.5 3.5 0 0 1 12-.002Zm0 2a1.5 1.5 0 0 0-1.375.902l-.262.6H4.5v17h15v-17h-5.863l-.262-.6A1.501 1.501 0 0 0 12 1.998Z"/><path d="M13.004 14.996V17H11v-2.004h2.004ZM11 7.5h2v6h-2v-6Z"/></g><defs><clipPath id="ava"><path fill="#fff" d="M0 0h24v24H0z"/></clipPath></defs></svg><svg viewBox="0 0 24 24" id="clear" xmlns="http://www.w3.org/2000/svg"><path d="m14.03 1.889 9.657 9.657-8.615 8.615H20v2H6.747l-3.666-3.666a4 4 0 0 1 0-5.657l10.95-10.949Zm.322 16.163 6.507-6.506-6.829-6.829-6.828 6.829 6.828 6.828.32-.323.002.001ZM5.788 12.96l-1.293 1.293a2 2 0 0 0 0 2.828l3.08 3.08h4.68l.366-.368-6.833-6.833Z"/></svg><svg viewBox="0 0 24 24" id="close" xmlns="http://www.w3.org/2000/svg"><path d="m19.414 6-6 6 6 6L18 19.414l-6-6-6 6L4.586 18l6-6-6-6L6 4.586l6 6 6-6L19.414 6Z"/></svg><svg viewBox="0 0 24 24" id="close-circle" xmlns="http://www.w3.org/2000/svg"><path d="M21 12a9 9 0 0 0-9-9 9 9 0 0 0-9 9 9 9 0 0 0 9 9 9 9 0 0 0 9-9Zm-4.405-3.183-.706.708L13.414 12l2.475 2.475.706.708-1.414 1.414-3.182-3.183-3.183 3.183-1.414-1.415L10.585 12 7.402 8.818l1.414-1.415L12 10.585l3.182-3.182 1.414 1.414ZM23 12c0 6.075-4.925 11-11 11S1 18.075 1 12 5.925 1 12 1s11 4.925 11 11Z"/></svg><svg viewBox="0 0 24 24" id="cogwheel" xmlns="http://www.w3.org/2000/svg"><path d="m14.82 1 .647 3.24c.538.24 1.046.535 1.518.877l3.131-1.06 2.82 4.885-2.483 2.181c.06.583.06 1.17 0 1.753l2.483 2.182-2.82 4.884-3.13-1.06a8.495 8.495 0 0 1-1.519.878L14.82 23H9.18l-.648-3.24a8.495 8.495 0 0 1-1.518-.878l-3.13 1.06-2.82-4.884 2.482-2.183a8.598 8.598 0 0 1 0-1.751L1.064 8.942l2.82-4.884 3.13 1.06a8.496 8.496 0 0 1 1.518-.879L9.18 1h5.64Zm-4.431 4.156-.11.55-.525.192a6.501 6.501 0 0 0-1.913 1.106l-.43.358-.53-.178-2.085-.706-1.18 2.043 2.072 1.822-.094.55a6.602 6.602 0 0 0 0 2.214l.094.55-2.073 1.82 1.181 2.044 2.084-.705.531-.178.43.358c.57.475 1.217.849 1.913 1.106l.525.193.11.549.43 2.156h2.362l.54-2.705.525-.193a6.5 6.5 0 0 0 1.912-1.106l.431-.358.53.178 2.084.706 1.181-2.044-1.652-1.452-.42-.37.095-.55a6.508 6.508 0 0 0 0-2.211l-.095-.551.42-.37 1.652-1.453-1.18-2.043-2.615.885-.43-.36a6.505 6.505 0 0 0-1.914-1.105l-.524-.194L13.18 3h-2.36l-.431 2.156Z"/><path d="M14.985 11.703a3 3 0 0 0-2.688-2.688L12 9a3 3 0 0 0-3 3l.015.297A3 3 0 0 0 12 15l.297-.015A3 3 0 0 0 15 12l-.015-.297Zm2.01.545a5 5 0 0 1-4.747 4.746L12 17a5 5 0 0 1-4.994-4.752L7 12a5 5 0 0 1 5-5l.248.006A5 5 0 0 1 17 12l-.006.248Z"/></svg><svg viewBox="0 0 24 24" id="courier" xmlns="http://www.w3.org/2000/svg"><g clip-path="url(#baa)"><path d="M12 21c0-1.785-.552-2.998-1.373-3.771C9.795 16.445 8.565 16 7 16s-2.795.446-3.627 1.229C2.552 18.002 2 19.215 2 21v1h10v-1Zm3-12.65 2.5 1.11V6.65L15 5.54v2.81Zm4.5-1.7v2.81L22 8.35V5.54l-2.5 1.11ZM16.463 4l2.037.905L20.537 4 18.5 3.094 16.463 4Zm-6.478 6.703a3 3 0 0 0-2.688-2.688L7 8a3 3 0 0 0 0 6l.297-.015A3 3 0 0 0 10 11l-.015-.297Zm2.01.545a5 5 0 0 1-1.46 3.287c-.051.052-.105.1-.158.15a6.048 6.048 0 0 1 1.621 1.086C13.302 16.998 14 18.785 14 21v3H0v-3c0-2.215.698-4.002 2.002-5.229a6.048 6.048 0 0 1 1.62-1.086A5 5 0 0 1 7 6l.248.006A5 5 0 0 1 12 11l-.006.248ZM24 9.649l-.594.265-4.906 2.18-4.906-2.18L13 9.65V3.351l.594-.265L18.5.906l4.906 2.18.594.265v6.298Z"/></g><defs><clipPath id="baa"><path fill="#fff" d="M0 0h24v24H0z"/></clipPath></defs></svg><svg viewBox="0 0 24 24" id="delete" xmlns="http://www.w3.org/2000/svg"><path d="M16.5 1v3H22v2h-2.028l-.501 17H4.529l-.5-17H2V4h5.5V1h9ZM6.472 21h11.056l.442-15H6.03l.442 15Zm9.771-10.328L13.414 13.5l2.83 2.828-1.415 1.414L12 14.913l-2.828 2.83-1.414-1.415 2.828-2.828-2.828-2.828 1.414-1.414L12 12.086l2.83-2.828 1.413 1.414ZM9.5 4h5V3h-5v1Z"/></svg><svg viewBox="0 0 24 24" id="delivery-car" xmlns="http://www.w3.org/2000/svg"><path d="M15 2v5h4.48l.301.375 4 5 .219.274V19h-3.128a3.999 3.999 0 0 1-7.744 0H9.872a3.999 3.999 0 0 1-7.744 0H0V2h15ZM6 16a2 2 0 0 0 0 4l.197-.01A2 2 0 0 0 6 16Zm11 0a2 2 0 0 0 0 4l.197-.01A2 2 0 0 0 19 18l-.01-.197A2 2 0 0 0 17 16Zm-2-1.463A4 4 0 0 1 20.872 17H22v-3.648L18.519 9H15v5.537ZM2 17h.128a3.999 3.999 0 0 1 7.744 0H13V4H2v13Z"/></svg><svg viewBox="0 0 24 24" id="details" xmlns="http://www.w3.org/2000/svg"><g clip-path="url(#bda)"><path d="M12-.002A3.5 3.5 0 0 1 14.871 1.5H21.5v21h-19v-21h6.629A3.5 3.5 0 0 1 12-.002Zm0 2a1.5 1.5 0 0 0-1.375.902l-.262.6H4.5v17h15v-17h-5.863l-.262-.6A1.501 1.501 0 0 0 12 1.998Z"/><path d="M14 15v2H7v-2h7Zm3-4v2H7v-2h10Zm0-4v2H7V7h10Z"/></g><defs><clipPath id="bda"><path fill="#fff" d="M0 0h24v24H0z"/></clipPath></defs></svg><svg viewBox="0 0 24 24" id="download" xmlns="http://www.w3.org/2000/svg"><path d="M13 3v9.586l3.5-3.5 1.414 1.414L12 16.414 6.086 10.5 7.5 9.086l3.5 3.5V3h2ZM4.5 14v5h15v-5h2v7h-19v-7h2Z"/></svg><svg viewBox="0 0 24 24" id="edit" xmlns="http://www.w3.org/2000/svg"><path d="M15.748 2.947a2 2 0 0 1 2.828 0l2.475 2.475a1.999 1.999 0 0 1 0 2.829L9.158 20.144l-6.38 1.076 1.077-6.38L15.748 2.947Zm-.229 3.057 2.475 2.475 1.643-1.643-2.475-2.474-1.643 1.642Zm1.06 3.89-2.474-2.475-8.384 8.384-.503 2.977 2.977-.502 8.384-8.384Z"/></svg><svg viewBox="0 0 24 24" id="eye" xmlns="http://www.w3.org/2000/svg"><g clip-path="url(#bha)"><path d="M12 3c5.579 0 10.302 3.654 11.91 8.696l.097.304-.097.304C22.302 17.346 17.578 21 12 21 6.421 21 1.697 17.346.089 12.304L-.008 12l.097-.304C1.699 6.654 6.42 3 12 3Zm0 2c-4.57 0-8.46 2.92-9.902 7 1.44 4.079 5.331 7 9.902 7 4.57 0 8.46-2.921 9.9-7-1.44-4.079-5.33-7-9.9-7Z"/><path d="M14.985 11.703a3 3 0 0 0-2.688-2.688L12 9a3 3 0 0 0-3 3l.015.297A3 3 0 0 0 12 15l.297-.015A3 3 0 0 0 15 12l-.015-.297Zm2.01.545a5 5 0 0 1-4.747 4.746L12 17a5 5 0 0 1-4.994-4.752L7 12a5 5 0 0 1 5-5l.248.006A5 5 0 0 1 17 12l-.006.248Z"/></g><defs><clipPath id="bha"><path fill="#fff" d="M0 0h24v24H0z"/></clipPath></defs></svg><svg viewBox="0 0 24 24" id="eye-close" xmlns="http://www.w3.org/2000/svg"><g clip-path="url(#bga)"><path d="M22.414 21 21 22.414l-2.967-2.967A12.44 12.44 0 0 1 12 21C6.42 21 1.696 17.346.088 12.304l-.097-.305.098-.305a12.529 12.529 0 0 1 4.178-6.013L1.586 3 3 1.586 22.414 21ZM5.692 7.106a10.527 10.527 0 0 0-3.594 4.895C3.539 16.079 7.428 19 11.999 19c1.632 0 3.173-.373 4.549-1.036l-1.794-1.794a4.997 4.997 0 0 1-1.78.734 5.001 5.001 0 0 1-5.96-4.535L7 12c0-1.018.306-1.967.83-2.757L5.691 7.106ZM12 3c5.578 0 10.303 3.654 11.912 8.696l.097.305-.098.305a12.5 12.5 0 0 1-1.82 3.57l-.59.807-1.613-1.182.59-.807a10.497 10.497 0 0 0 1.423-2.696C20.46 7.92 16.57 5 12 5c-.578 0-1.141.045-1.69.135l-.988.16L9 3.323l.986-.16C10.646 3.053 11.317 3 12 3Zm1.47 4.22a5.01 5.01 0 0 1 3.31 3.31l.295.955-1.91.59-.296-.955a3.01 3.01 0 0 0-1.988-1.988l-.955-.295.59-1.911.955.295ZM9 12a3.002 3.002 0 0 0 3.585 2.942c.246-.048.481-.13.705-.237L9.294 10.71A2.981 2.981 0 0 0 9 12Z"/></g><defs><clipPath id="bga"><path fill="#fff" d="M0 0h24v24H0z"/></clipPath></defs></svg><svg viewBox="0 0 24 24" id="fact-check" xmlns="http://www.w3.org/2000/svg"><path d="M23 3v18H1V3h22ZM3 19h18V5H3v14Z"/><path d="M11 15v2H5v-2h6Zm8.914-4.5L15 15.414 12.086 12.5l1.414-1.414 1.5 1.5 3.5-3.5 1.414 1.414ZM11 11v2H5v-2h6Zm0-4v2H5V7h6Z"/></svg><svg viewBox="0 0 24 24" id="file-copy" xmlns="http://www.w3.org/2000/svg"><path d="M6 1h9.414L21 6.586V19H6V1Zm2 2v14h11V9h-6V3H8Zm7 .414V7h3.586L15 3.414ZM4 5v16h11v2H2V5h2Z"/></svg><svg viewBox="0 0 24 24" id="file-download" xmlns="http://www.w3.org/2000/svg"><path d="M3 1.833h10.345L18 6.488v4.095h-1.667V8.5h-5v-5H4.667v15h6.666v1.667H3V1.833Zm10 2.012v2.988h2.988L13 3.845Zm4.167 7.988v5.925l2.09-2.066 1.171 1.185-4.095 4.048-4.095-4.048 1.172-1.185 2.09 2.066v-5.925h1.667Z"/></svg><svg viewBox="0 0 24 24" id="file-export" xmlns="http://www.w3.org/2000/svg"><path d="m23.908 19.002-4.858 4.914-1.422-1.406 2.48-2.508h-7.11v-2h7.11l-2.48-2.508 1.422-1.406 4.858 4.914ZM19 9h-6V3H5v18h6v2H3V1h12.414L21 6.586V12h-2V9Zm-4-2h3.586L15 3.414V7Z"/></svg><svg viewBox="0 0 24 24" id="filters" xmlns="http://www.w3.org/2000/svg"><path d="M8 16a3 3 0 0 1 2.121.879c.32.319.555.704.703 1.121H22v2H10.824a2.995 2.995 0 0 1-.703 1.121 3 3 0 0 1-4.242 0A2.995 2.995 0 0 1 5.176 20H2v-2h3.176a3 3 0 0 1 .703-1.121A3 3 0 0 1 8 16Zm0 2a1 1 0 0 0-1 1l.005.099A1 1 0 1 0 8 18Zm8.297-8.985a3 3 0 0 1 1.824.864c.32.319.555.704.703 1.121H22v2h-3.176a2.995 2.995 0 0 1-.703 1.121 3 3 0 0 1-4.242 0A2.995 2.995 0 0 1 13.176 13H2v-2h11.176a3 3 0 0 1 .703-1.121A3 3 0 0 1 16 9l.297.015Zm-.396 1.99A1 1 0 1 0 16 11l-.099.005Zm-7.604-8.99a3 3 0 0 1 1.824.864c.32.319.555.704.703 1.121H22v2H10.824a2.995 2.995 0 0 1-.703 1.121 3 3 0 0 1-1.824.864L8 8a3 3 0 0 1-2.121-.879A2.995 2.995 0 0 1 5.176 6H2V4h3.176a3 3 0 0 1 .703-1.121A3 3 0 0 1 8 2l.297.015ZM7.9 4.005A1 1 0 0 0 7 5l.005.099A1 1 0 0 0 8 6l.099-.005A1 1 0 0 0 8 4l-.099.005Z"/></svg><svg viewBox="0 0 24 24" id="folder" xmlns="http://www.w3.org/2000/svg"><path d="m9.48 2.5.301.375L11.481 5H23v16H1V2.5h8.48ZM3 19h18v-8.25H3V19ZM3 8.75h18V7H10.52l-.301-.375-1.7-2.125H3v4.25Z"/></svg><svg viewBox="0 0 24 24" id="image" xmlns="http://www.w3.org/2000/svg"><path d="M22 2v20H2V2h20ZM4 16.414V20h13.586L9 11.414l-5 5Zm0-2.828 5-5 11 11V4H4v9.586Z"/><path d="M16.75 8.25a1 1 0 1 0-2 0 1 1 0 0 0 2 0Zm2 0a3 3 0 1 1-6 0 3 3 0 0 1 6 0Z"/></svg><svg viewBox="0 0 24 24" id="image-add" xmlns="http://www.w3.org/2000/svg"><path d="M18 20h-4v-2h4v-4h2v4h4v2h-4v4h-2v-4Zm2-16H4v9.586l5-5L14.414 14 13 15.414l-4-4-5 5V20h8v2H2V2h20v10h-2V4Zm-3.25 4.25a1 1 0 1 0-2 0 1 1 0 0 0 2 0Zm2 0a3 3 0 1 1-6 0 3 3 0 0 1 6 0Z"/></svg><svg viewBox="0 0 24 24" id="increase" xmlns="http://www.w3.org/2000/svg"><path d="M15.096 5.904A6.5 6.5 0 1 0 5.82 15.01a6.5 6.5 0 0 0 9.276-9.107ZM4.49 4.49a8.5 8.5 0 0 1 12.686 11.272l5.345 5.345-1.414 1.414-5.345-5.345A8.5 8.5 0 0 1 4.49 4.49Z"/><path d="M6.5 9.5h8v2h-8v-2Z"/><path d="M9.5 14.5v-8h2v8h-2Z"/></svg><svg viewBox="0 0 24 24" id="location" xmlns="http://www.w3.org/2000/svg"><path d="m12.566 22.824-.566.39-.566-.39L12 22l.566.824ZM19 10a7 7 0 0 0-6.653-6.991L12 3a7 7 0 0 0-7 7c0 2.863 1.782 5.623 3.738 7.763A26.143 26.143 0 0 0 12 20.755a26.144 26.144 0 0 0 3.262-2.992C17.218 15.623 19 12.863 19 10Zm2 0c0 3.637-2.218 6.877-4.262 9.112a28.141 28.141 0 0 1-3.797 3.44 15.855 15.855 0 0 1-.344.25l-.028.02-.002.001L12 22l-.567.823h-.002l-.028-.02a25.157 25.157 0 0 1-1.289-.991 28.138 28.138 0 0 1-2.852-2.7C5.218 16.877 3 13.637 3 10a9 9 0 1 1 18 0Z"/><path d="M14 10a2 2 0 1 0-4 0 2 2 0 0 0 4 0Zm2 0a4 4 0 1 1-7.998 0A4 4 0 0 1 16 10Z"/></svg><svg viewBox="0 0 24 24" id="lock" xmlns="http://www.w3.org/2000/svg"><path d="M16 7a4 4 0 0 0-8 0v3h8V7ZM5.5 20h13v-8h-13v8Zm9.5-5v2H9v-2h6Zm3-5h2.5v12h-17V10H6V7a6 6 0 0 1 12 0v3Z"/></svg><svg viewBox="0 0 24 24" id="login" xmlns="http://www.w3.org/2000/svg"><path d="M3 11h9.586l-3.5-3.5L10.5 6.086 16.414 12 10.5 17.914 9.086 16.5l3.5-3.5H3v-2Zm11 8.5h5v-15h-5v-2h7v19h-7v-2Z"/></svg><svg viewBox="0 0 24 24" id="logout" xmlns="http://www.w3.org/2000/svg"><path d="M10 2.5v2H5v15h5v2H3v-19h7ZM21.414 12 15.5 17.914 14.086 16.5l3.5-3.5H8v-2h9.586l-3.5-3.5L15.5 6.086 21.414 12Z"/></svg><svg viewBox="0 0 24 24" id="mail" xmlns="http://www.w3.org/2000/svg"><path d="M1 3h22v18H1V3Zm2 2v1.83l9 4.55 9-4.55V5H3Zm18 4.07-9 4.55-9-4.55V19h18V9.07Z"/></svg><svg viewBox="0 0 24 24" id="minus" xmlns="http://www.w3.org/2000/svg"><path d="M4 11h16v2H4v-2Z"/></svg><svg viewBox="0 0 24 24" id="money" xmlns="http://www.w3.org/2000/svg"><path d="m17.525 5.116 2.099-.715 1.915 5.602H22v2h-1.89l-1.733-5.065-14.7 5.012-.161.054H1.5v-2h.509v-.012l.65.004L14.346.66l3.178 4.456Zm-9.684 3.3 7.708-2.627-1.605-2.249-6.103 4.876Zm5.651 7.435A1.5 1.5 0 1 0 13.5 16l-.008-.149Zm2.004.323A3.5 3.5 0 1 1 15.5 16l-.004.174Z"/><path d="M22.5 10v12h-21V10h21Zm-19 10h17v-8h-17v8Z"/><path d="M2.499 17.998a3 3 0 0 1 3.003 3.003L5.5 22h-4v-4.001l.999-.001ZM22.5 18v4h-4v-1a3 3 0 0 1 3-3h1Zm-17-8v1a3 3 0 0 1-3 3h-1v-4h4Zm17 0v4h-1a3 3 0 0 1-3-3v-1h4Z"/></svg><svg viewBox="0 0 24 24" id="new-doc" xmlns="http://www.w3.org/2000/svg"><path d="M15.414 1 21 6.586V23H3V1h12.414ZM5 21h14V9h-6V3H5v18ZM15 7h3.586L15 3.414V7Z"/><path d="M11 16H8v-2h3v-3h2v3h3v2h-3v3h-2v-3Z"/></svg><svg viewBox="0 0 24 24" id="orders" xmlns="http://www.w3.org/2000/svg"><path d="M19 3v17l-2.5-2-2.25 2L12 18l-2.25 2-2.25-2L5 20V3h14ZM6 17.918l1.534-1.226 2.216 1.97 2.25-2 2.25 2 2.216-1.97L18 17.918V4H6v13.918Z"/><path d="M22 2v2h-2v18.081l-3.467-2.773-2.283 2.03L12 19.337l-2.25 2-2.284-2.03L4 22.082V4H2V2h20ZM6 17.918l1.534-1.226 2.216 1.97 2.25-2 2.25 2 2.216-1.97L18 17.918V4H6v13.918ZM15 11v2H9v-2h6Zm1-4v2H8V7h8Z"/></svg><svg viewBox="0 0 24 24" id="phone" xmlns="http://www.w3.org/2000/svg"><path d="M1 2h8.58l1.487 6.69-1.86 1.86a14.1 14.1 0 0 0 4.243 4.242l1.86-1.859L22 14.42V23h-1a19.9 19.9 0 0 1-10.85-3.196 20.1 20.1 0 0 1-5.954-5.954A19.9 19.9 0 0 1 1 3V2Zm2.027 2a17.9 17.9 0 0 0 2.849 8.764 18.1 18.1 0 0 0 5.36 5.36A17.9 17.9 0 0 0 20 20.973v-4.949l-4.053-.9-2.174 2.175-.663-.377a16.07 16.07 0 0 1-6.032-6.032l-.377-.663 2.175-2.174L7.976 4H3.027Z"/></svg><svg viewBox="0 0 24 24" id="plus" xmlns="http://www.w3.org/2000/svg"><path d="M11 13H4v-2h7V4h2v7h7v2h-7v7h-2v-7Z"/></svg><svg viewBox="0 0 24 24" id="print" xmlns="http://www.w3.org/2000/svg"><path d="M4 2h16v5h3.5v11H19v4H5v-4H.5V7H4V2Zm2 5h12V4H6v3ZM2.5 9v7H5v-2h14v2h2.5V9h-19ZM17 16H7v4h10v-4Zm0-5.504h2.004V12.5H17v-2.004Z"/></svg><svg viewBox="0 0 24 24" id="profile" xmlns="http://www.w3.org/2000/svg"><path d="M21 12a9 9 0 0 0-9-9 9 9 0 0 0-9 9 9 9 0 0 0 9 9v1C6.477 22 2 17.523 2 12S6.477 2 12 2s10 4.477 10 10-4.477 10-10 10v-1a9 9 0 0 0 9-9Z"/><path d="M14.5 8.5a2.5 2.5 0 0 0-2.253-2.487L12 6a2.5 2.5 0 0 0 0 5v1a3.502 3.502 0 0 1-2.35-.906l-.125-.12a3.499 3.499 0 0 1-.69-.977l-.068-.157a3.502 3.502 0 0 1 .638-3.689l.12-.126a3.5 3.5 0 0 1 5.708 3.815l-.069.157a3.5 3.5 0 0 1-1.824 1.736l-.161.063A3.5 3.5 0 0 1 12 12v-1a2.502 2.502 0 0 0 2.5-2.5Zm-5 6.5h5a4 4 0 0 1 4 4v.6A9.96 9.96 0 0 1 12 22a9.96 9.96 0 0 1-6.5-2.4V19a4 4 0 0 1 1.035-2.685l.137-.143A4 4 0 0 1 9.5 15Zm0 1a3 3 0 0 0-3 3v.124A8.96 8.96 0 0 0 11.998 21h.004l.4-.009a8.958 8.958 0 0 0 5.098-1.867V19a3 3 0 0 0-2.703-2.985L14.5 16h-5Z"/><path d="M14.5 8.5a2.5 2.5 0 0 0-2.253-2.487L12 6a2.5 2.5 0 1 0 2.5 2.5Zm2 0a4.5 4.5 0 1 1-8.999-.002A4.5 4.5 0 0 1 16.5 8.5Zm-2 5.5a5 5 0 0 1 5 5v1.06l-.349.3a10.96 10.96 0 0 1-7.15 2.639l-.003.001a10.96 10.96 0 0 1-7.15-2.64l-.348-.3V19l.006-.248A5 5 0 0 1 9.5 14h5Zm-5 2a3 3 0 0 0-3 3v.124A8.96 8.96 0 0 0 11.998 21h.004l.4-.009a8.958 8.958 0 0 0 5.098-1.867V19a3 3 0 0 0-2.703-2.985L14.5 16h-5Z"/><path d="M21 12a9 9 0 0 0-9-9 9 9 0 0 0-9 9 9 9 0 0 0 9 9 9 9 0 0 0 9-9Zm2 0c0 6.075-4.925 11-11 11S1 18.075 1 12 5.925 1 12 1s11 4.925 11 11Z"/></svg><svg viewBox="0 0 24 24" id="requests" xmlns="http://www.w3.org/2000/svg"><path d="M15.414 1 21 6.586V23H3V1h12.414ZM5 21h14V9h-6V3H5v18ZM15 7h3.586L15 3.414V7Z"/><path d="M17 16v2H7v-2h10Zm0-4v2H7v-2h10Z"/></svg><svg viewBox="0 0 24 24" id="restore" xmlns="http://www.w3.org/2000/svg"><path fill-rule="evenodd" clip-rule="evenodd" d="M12 21a9.002 9.002 0 0 1-8.931-7.884l1.984-.248A7.001 7.001 0 0 0 19 12 7 7 0 0 0 6.255 8H10v2H3V3h2v3.343A9 9 0 1 1 12 21Z"/></svg><svg viewBox="0 0 24 24" id="save" xmlns="http://www.w3.org/2000/svg"><path d="M18 14v8H6v-8h12ZM8 20h8v-4H8v4Zm5-18v6H6V2h7ZM8 6h3V4H8v2Z"/><path d="M16.414 2 22 7.586V22H2V2h14.414ZM4 20h16V8.414L15.586 4H4v16Z"/></svg><svg viewBox="0 0 24 24" id="search" xmlns="http://www.w3.org/2000/svg"><path d="M15.096 5.904A6.5 6.5 0 1 0 5.82 15.01a6.5 6.5 0 0 0 9.276-9.107ZM4.49 4.49a8.5 8.5 0 0 1 12.686 11.272l5.345 5.345-1.414 1.414-5.345-5.345A8.5 8.5 0 0 1 4.49 4.49Z"/></svg><svg viewBox="0 0 24 24" id="time" xmlns="http://www.w3.org/2000/svg"><path d="M21 12a9 9 0 0 0-9-9 9 9 0 0 0-9 9 9 9 0 0 0 9 9 9 9 0 0 0 9-9Zm2 0c0 6.075-4.925 11-11 11S1 18.075 1 12 5.925 1 12 1s11 4.925 11 11Z"/><path d="M11 5.5h2v6.086L16.414 15 15 16.414l-4-4V5.5Z"/></svg><svg viewBox="0 0 24 24" id="undertake-delivery" xmlns="http://www.w3.org/2000/svg"><path d="M14 14.125a.875.875 0 0 0-.875-.875h-4.69a1.25 1.25 0 0 0-.885.364l-2.05 2.05V19.5h5.629l5.797-1.45 3.531-1.505a.554.554 0 0 0-.4-1.028l-.026.006-.026.006-6.28 1.446-.112.025H10v-2h3.125a.875.875 0 0 0 .875-.875ZM2 19.5h1.5v-3.25H2v3.25ZM7.5 2h14v9.5h-2V4h-2v5.618l-3-1.5-3 1.5V4h-2v5.5h-2V2Zm6 4.382 1-.5 1 .5V4h-2v2.382Zm2.486 8.02 3.57-.822a2.555 2.555 0 0 1 1.771 4.768l-.022.01-.023.01-3.713 1.583-.077.019-6 1.5-.119.03H0v-7.25h4.086l2.053-2.053a3.248 3.248 0 0 1 2.298-.947h4.688a2.875 2.875 0 0 1 2.861 3.151Z"/></svg><svg viewBox="0 0 24 24" id="user" xmlns="http://www.w3.org/2000/svg"><path d="M12 4a3.5 3.5 0 1 0 0 7 3.5 3.5 0 0 0 0-7ZM6.5 7.5a5.5 5.5 0 1 1 11 0 5.5 5.5 0 0 1-11 0ZM3 19a5 5 0 0 1 5-5h8a5 5 0 0 1 5 5v2a1 1 0 0 1-1 1H4a1 1 0 0 1-1-1v-2Zm5-3a3 3 0 0 0-3 3 1 1 0 0 0 1 1h12a1 1 0 0 0 1-1 3 3 0 0 0-3-3H8Z"/></svg><svg viewBox="0 0 24 24" id="user-plus" xmlns="http://www.w3.org/2000/svg"><path d="M17 19h-4v-2h4v-4h2v4h4v2h-4v4h-2v-4ZM2 20a6 6 0 0 1 6-6h4v2H8a4 4 0 0 0-4 4h8.05v2H2v-2ZM15 7.5a3.5 3.5 0 0 0-7 0l.004.174A3.5 3.5 0 0 0 15 7.5Zm2 0a5.5 5.5 0 1 1-11-.001A5.5 5.5 0 0 1 17 7.5Z"/></svg></svg>