<svg width="24" height="24" viewBox="0 0 24 24" xmlns="http://www.w3.org/2000/svg">
<path fill-rule="evenodd" clip-rule="evenodd" d="M11.084 3.24402C11.604 3.07716 12.1596 3.05537 12.691 3.18102L12.916 3.24402L19.4501 5.34002C19.6401 5.40302 19.8111 5.52102 19.9361 5.68602L20.0061 5.79102L22.7561 10.538C22.8256 10.6579 22.8695 10.791 22.8849 10.9288C22.9003 11.0665 22.8869 11.206 22.8455 11.3383C22.8041 11.4706 22.7357 11.5928 22.6445 11.6973C22.5534 11.8017 22.4415 11.8861 22.316 11.945L22.196 11.992L20.1451 12.65V16.98C20.1449 17.3759 20.0273 17.7628 19.8071 18.0918C19.5869 18.4208 19.274 18.677 18.9081 18.828L18.7561 18.884L12.916 20.756C12.3961 20.9229 11.8405 20.9447 11.309 20.819L11.084 20.757L5.24405 18.884C4.86701 18.7629 4.53441 18.5327 4.28838 18.2224C4.04235 17.9121 3.89397 17.5357 3.86205 17.141L3.85505 16.979V12.65L1.80405 11.992C1.67215 11.9497 1.55048 11.8804 1.44676 11.7886C1.34304 11.6968 1.25953 11.5844 1.20152 11.4586C1.14351 11.3328 1.11227 11.1963 1.10978 11.0578C1.10729 10.9193 1.1336 10.7818 1.18705 10.654L1.24405 10.538L3.99405 5.79102C4.09713 5.61316 4.25251 5.4714 4.43905 5.38502L4.54905 5.34002L11.084 3.24402ZM13 12.305V18.629L18.1451 16.979V13.292L15.055 14.283C14.8569 14.3466 14.6438 14.3467 14.4456 14.2835C14.2473 14.2202 14.0738 14.0966 13.949 13.93L13.885 13.832L13 12.305ZM11 12.305L10.115 13.832C10.0007 14.0293 9.82232 14.1817 9.60952 14.2637C9.39671 14.3457 9.16226 14.3525 8.94505 14.283L5.85505 13.292V16.979L11 18.63V12.305ZM5.32005 7.49002L3.59705 10.467L8.78805 12.133L10.513 9.15602L5.32005 7.49002ZM18.68 7.49002L13.4871 9.15602L15.2111 12.133L20.403 10.467L18.68 7.49002ZM12.305 5.14802C12.1467 5.09746 11.9783 5.08715 11.815 5.11802L11.695 5.14802L8.13005 6.29202L12 7.53302L15.87 6.29202L12.305 5.14802Z"/>
</svg>
