<svg width="24" height="24" viewBox="0 0 24 24" xmlns="http://www.w3.org/2000/svg">
<path d="M4 21C4 20.4696 4.21087 19.961 4.58594 19.5859C4.96101 19.2109 5.46957 19 6 19C6.53043 19 7.03899 19.2109 7.41406 19.5859C7.78913 19.961 8 20.4696 8 21C8 21.5304 7.78913 22.039 7.41406 22.4141C7.03899 22.7891 6.53043 23 6 23C5.46957 23 4.96101 22.7891 4.58594 22.4141C4.21087 22.039 4 21.5304 4 21ZM18 21C18 20.4696 18.2109 19.961 18.5859 19.5859C18.961 19.2109 19.4696 19 20 19C20.5304 19 21.039 19.2109 21.4141 19.5859C21.7891 19.961 22 20.4696 22 21C22 21.5304 21.7891 22.039 21.4141 22.4141C21.039 22.7891 20.5304 23 20 23C19.4696 23 18.961 22.7891 18.5859 22.4141C18.2109 22.039 18 21.5304 18 21ZM4.76367 1L7.76367 12H18.2793L21.3672 2.73535L23.2646 3.36719L19.7207 14H7.78027L7.28027 16H22V18H4.71875L5.96582 13.0117L3.23633 3H0V1H4.76367ZM12 7H9V5H12V2H14V5H17V7H14V10H12V7Z"/>
</svg>
