<svg width="24" height="24" viewBox="0 0 24 24" xmlns="http://www.w3.org/2000/svg">
<g clip-path="url(#clip0_85_8197)">
<path d="M12 0.998352C12.4867 0.998352 12.963 1.14078 13.3701 1.40753C13.7263 1.64096 14.0158 1.96095 14.2129 2.33624L14.292 2.50031H20.5V21.5003H3.5V2.50031H9.70801L9.78711 2.33624C9.95611 2.01442 10.1927 1.73279 10.4814 1.51202L10.6299 1.40753C11.037 1.14078 11.5133 0.998352 12 0.998352ZM12 1.99835C11.708 1.99835 11.422 2.08342 11.1777 2.24347C10.9335 2.40351 10.7416 2.632 10.625 2.89972L10.3633 3.50031H4.5V20.5003H19.5V3.50031H13.6367L13.375 2.89972C13.2584 2.632 13.0665 2.40351 12.8223 2.24347C12.578 2.08342 12.292 1.99835 12 1.99835Z"/>
<path d="M12 -0.00164795C12.6814 -0.00164795 13.348 0.197223 13.918 0.570618C14.2945 0.817291 14.6164 1.13432 14.8711 1.50031H21.5V22.5003H2.5V1.50031H9.12891C9.3836 1.13432 9.70552 0.817291 10.082 0.570618C10.652 0.197223 11.3186 -0.00164795 12 -0.00164795ZM12 1.99835C11.708 1.99835 11.422 2.08342 11.1777 2.24347C10.9335 2.40351 10.7416 2.632 10.625 2.89972L10.3633 3.50031H4.5V20.5003H19.5V3.50031H13.6367L13.375 2.89972C13.2584 2.632 13.0665 2.40351 12.8223 2.24347C12.578 2.08342 12.292 1.99835 12 1.99835Z"/>
<path d="M13.0039 14.9961V17H11V14.9961H13.0039ZM11 7.49999H13V13.5H11V7.49999Z"/>
</g>
<defs>
<clipPath id="clip0_85_8197">
<rect width="24" height="24" fill="white"/>
</clipPath>
</defs>
</svg>
