<svg width="24" height="24" viewBox="0 0 24 24" xmlns="http://www.w3.org/2000/svg">
<path d="M14.0301 1.88898L23.6871 11.546L15.0721 20.161H20.0001V22.161H6.74707L3.08107 18.495C2.70961 18.1235 2.41496 17.6826 2.21393 17.1973C2.01289 16.7119 1.90942 16.1918 1.90942 15.6665C1.90942 15.1412 2.01289 14.621 2.21393 14.1357C2.41496 13.6504 2.70961 13.2094 3.08107 12.838L14.0301 1.88898ZM14.3521 18.052L20.8591 11.546L14.0301 4.71698L7.20207 11.546L14.0301 18.374L14.3501 18.051L14.3521 18.052ZM5.78807 12.96L4.49507 14.253C4.12013 14.628 3.9095 15.1366 3.9095 15.667C3.9095 16.1973 4.12013 16.7059 4.49507 17.081L7.57507 20.161H12.2551L12.6211 19.793L5.78807 12.96Z"/>
</svg>
