<svg width="24" height="24" viewBox="0 0 24 24" xmlns="http://www.w3.org/2000/svg">
<path d="M21 12C21 7.02928 16.9707 3 12 3C7.02928 3 3 7.02928 3 12C3 16.9707 7.02928 21 12 21C16.9707 21 21 16.9707 21 12ZM16.5947 8.81738L15.8887 9.52539L13.4141 12L15.8887 14.4746L16.5947 15.1826L15.1807 16.5967L11.999 13.4141L8.81641 16.5967L7.40234 15.1816L10.585 12L7.40234 8.81836L8.81641 7.40332L11.999 10.585L15.1807 7.40332L16.5947 8.81738ZM23 12C23 18.0753 18.0753 23 12 23C5.92472 23 1 18.0753 1 12C1 5.92472 5.92472 1 12 1C18.0753 1 23 5.92472 23 12Z"/>
</svg>
