<svg width="24" height="24" viewBox="0 0 24 24" xmlns="http://www.w3.org/2000/svg">
<path d="M14.8196 1L15.467 4.23926C16.0048 4.47988 16.5127 4.775 16.9846 5.11719L20.1165 4.05762L22.9358 8.94238L20.4534 11.123C20.5138 11.706 20.5138 12.2931 20.4534 12.876L22.9358 15.0576L20.1165 19.9424L16.9856 18.8818C16.5109 19.2262 16.0023 19.5202 15.467 19.7598L14.8196 23H9.17993L8.53247 19.7598C7.99722 19.5202 7.48858 19.2262 7.01392 18.8818L3.88403 19.9424L1.06372 15.0576L3.54614 12.875C3.48659 12.2928 3.48652 11.7062 3.54614 11.124L1.06372 8.94238L3.88403 4.05762L7.01392 5.11719C7.48855 4.7729 7.99726 4.47877 8.53247 4.23926L9.17993 1H14.8196ZM10.3889 5.15625L10.2786 5.70508L9.75415 5.89844C9.05818 6.1552 8.41083 6.52886 7.84106 7.00391L7.41138 7.3623L6.88013 7.18359L4.79614 6.47754L3.61548 8.52148L5.68774 10.3428L5.59399 10.8926C5.46927 11.6255 5.46927 12.3745 5.59399 13.1074L5.68774 13.6572L3.61548 15.4775L4.79614 17.5215L6.88013 16.8164L7.41138 16.6377L7.84106 16.9961C8.41083 17.4711 9.05818 17.8448 9.75415 18.1016L10.2786 18.2949L10.3889 18.8438L10.8196 21H13.1809L13.7209 18.2949L14.2463 18.1016C14.9421 17.8448 15.5888 17.471 16.1584 16.9961L16.5891 16.6377L17.1194 16.8164L19.2034 17.5215L20.384 15.4775L18.7317 14.0264L18.3118 13.6562L18.4065 13.1055C18.5326 12.3742 18.5326 11.6258 18.4065 10.8945L18.3118 10.3438L18.7317 9.97363L20.384 8.52148L19.2034 6.47754L16.5891 7.36328L16.1584 7.00391C15.5946 6.53362 14.9476 6.15768 14.2454 5.89844L13.7209 5.7041L13.1809 3H10.8196L10.3889 5.15625Z"/>
<path d="M14.9854 11.7031C14.9172 11.0165 14.6134 10.3711 14.1212 9.87891C13.629 9.38671 12.9836 9.08291 12.297 9.01465L12.0001 9C11.2044 9 10.4416 9.3163 9.87899 9.87891C9.31639 10.4415 9.00009 11.2044 9.00009 12L9.01474 12.2969C9.083 12.9835 9.3868 13.6289 9.87899 14.1211C10.4416 14.6837 11.2044 15 12.0001 15L12.297 14.9854C12.9836 14.9171 13.629 14.6133 14.1212 14.1211C14.6838 13.5585 15.0001 12.7956 15.0001 12L14.9854 11.7031ZM16.9942 12.248C16.9329 13.4838 16.4143 14.6561 15.5352 15.5352C14.6562 16.4142 13.4839 16.9328 12.2481 16.9941L12.0001 17C10.674 17 9.40261 16.4728 8.46493 15.5352C7.58588 14.6561 7.06728 13.4838 7.00595 12.248L7.00009 12C7.00009 10.6739 7.52725 9.40253 8.46493 8.46484C9.40261 7.52716 10.674 7 12.0001 7L12.2481 7.00586C13.4839 7.06719 14.6562 7.58579 15.5352 8.46484C16.4729 9.40253 17.0001 10.6739 17.0001 12L16.9942 12.248Z"/>
</svg>
