<svg width="24" height="24" viewBox="0 0 24 24" xmlns="http://www.w3.org/2000/svg">
<g clip-path="url(#clip0_223_22004)">
<path d="M12 21C12 19.215 11.4483 18.0016 10.627 17.2285C9.79534 16.4458 8.5653 16 7 16C5.4347 16 4.20466 16.4458 3.37305 17.2285C2.55168 18.0016 2 19.215 2 21V22H12V21ZM15 8.34961L17.5 9.46094V6.64941L15 5.53906V8.34961ZM19.5 6.64941V9.46094L22 8.34961V5.53906L19.5 6.64941ZM16.4629 4L18.5 4.90527L20.5371 4L18.5 3.09375L16.4629 4ZM9.98535 10.7031C9.91709 10.0165 9.61329 9.3711 9.12109 8.87891C8.6289 8.38671 7.98351 8.08291 7.29688 8.01465L7 8C6.20435 8 5.44152 8.3163 4.87891 8.87891C4.3163 9.44151 4 10.2044 4 11C4 11.7956 4.3163 12.5585 4.87891 13.1211C5.44152 13.6837 6.20435 14 7 14L7.29688 13.9854C7.98351 13.9171 8.6289 13.6133 9.12109 13.1211C9.6837 12.5585 10 11.7956 10 11L9.98535 10.7031ZM11.9941 11.248C11.9328 12.4838 11.4142 13.6561 10.5352 14.5352C10.4837 14.5866 10.4303 14.6356 10.377 14.6846C10.9723 14.9593 11.518 15.3197 11.998 15.7715C13.3016 16.9984 14 18.785 14 21V24H0V21C0 18.785 0.698353 16.9984 2.00195 15.7715C2.48175 15.3199 3.02707 14.9592 3.62207 14.6846C3.56887 14.6358 3.51609 14.5864 3.46484 14.5352C2.52716 13.5975 2 12.3261 2 11C2 9.67392 2.52716 8.40253 3.46484 7.46484C4.40253 6.52716 5.67392 6 7 6L7.24805 6.00586C8.48382 6.06719 9.6561 6.58579 10.5352 7.46484C11.4728 8.40253 12 9.67392 12 11L11.9941 11.248ZM24 9.64941L23.4062 9.91406L18.5 12.0947L13.5938 9.91406L13 9.64941V3.35059L13.5938 3.08594L18.5 0.905273L23.4062 3.08594L24 3.35059V9.64941Z" />
</g>
<defs>
<clipPath id="clip0_223_22004">
<rect width="24" height="24" fill="white"/>
</clipPath>
</defs>
</svg>
