<svg width="24" height="24" viewBox="0 0 24 24" xmlns="http://www.w3.org/2000/svg">
<path d="M15 2V7H19.4805L19.7812 7.375L23.7812 12.375L24 12.6494V19H20.8721C20.6949 19.6859 20.3376 20.3186 19.8281 20.8281C19.078 21.5783 18.0609 22 17 22C15.9391 22 14.922 21.5783 14.1719 20.8281C13.6624 20.3186 13.3051 19.6859 13.1279 19H9.87207C9.6949 19.6859 9.33761 20.3186 8.82812 20.8281C8.07798 21.5783 7.06087 22 6 22C4.93913 22 3.92202 21.5783 3.17188 20.8281C2.66239 20.3186 2.3051 19.6859 2.12793 19H0V2H15ZM6 16C5.46957 16 4.96101 16.2109 4.58594 16.5859C4.21087 16.961 4 17.4696 4 18C4 18.5304 4.21087 19.039 4.58594 19.4141C4.96101 19.7891 5.46957 20 6 20L6.19727 19.9902C6.65526 19.9449 7.08578 19.7423 7.41406 19.4141C7.78913 19.039 8 18.5304 8 18C8 17.4696 7.78913 16.961 7.41406 16.5859C7.03899 16.2109 6.53043 16 6 16ZM17 16C16.4696 16 15.961 16.2109 15.5859 16.5859C15.2109 16.961 15 17.4696 15 18C15 18.5304 15.2109 19.039 15.5859 19.4141C15.961 19.7891 16.4696 20 17 20L17.1973 19.9902C17.6553 19.9449 18.0858 19.7423 18.4141 19.4141C18.7891 19.039 19 18.5304 19 18L18.9902 17.8027C18.9449 17.3447 18.7423 16.9142 18.4141 16.5859C18.039 16.2109 17.5304 16 17 16ZM15 14.5371C15.603 14.1889 16.2916 14 17 14C18.0609 14 19.078 14.4217 19.8281 15.1719C20.3376 15.6814 20.6949 16.3141 20.8721 17H22V13.3516L18.5186 9H15V14.5371ZM2 17H2.12793C2.3051 16.3141 2.66239 15.6814 3.17188 15.1719C3.92202 14.4217 4.93913 14 6 14C7.06087 14 8.07798 14.4217 8.82812 15.1719C9.33761 15.6814 9.6949 16.3141 9.87207 17H13V4H2V17Z"/>
</svg>
