<svg width="24" height="24" viewBox="0 0 24 24" xmlns="http://www.w3.org/2000/svg">
<path d="M15.7481 2.94702C16.1231 2.57208 16.6317 2.36145 17.1621 2.36145C17.6924 2.36145 18.201 2.57208 18.5761 2.94702L21.0511 5.42202C21.2369 5.60775 21.3843 5.82827 21.4848 6.07097C21.5854 6.31367 21.6371 6.57381 21.6371 6.83652C21.6371 7.09924 21.5854 7.35937 21.4848 7.60208C21.3843 7.84478 21.2369 8.0653 21.0511 8.25102L9.15808 20.144L2.77808 21.22L3.85508 14.84L15.7481 2.94702ZM15.5191 6.00402L17.9941 8.47902L19.6371 6.83602L17.1621 4.36202L15.5191 6.00402ZM16.5791 9.89402L14.1051 7.41902L5.72108 15.803L5.21808 18.78L8.19508 18.278L16.5791 9.89402Z"/>
</svg>
