<svg width="24" height="24" viewBox="0 0 24 24" xmlns="http://www.w3.org/2000/svg">
<g clip-path="url(#clip0_105_6418)">
<path d="M22.4141 21L21 22.4141L18.0332 19.4473C16.243 20.4363 14.1863 21 11.999 21C6.42049 21 1.69636 17.3465 0.0878906 12.3037L-0.00878906 11.999L0.0888672 11.6943C0.853859 9.30942 2.31381 7.21921 4.2666 5.68066L1.58594 3L3 1.58594L22.4141 21ZM5.69238 7.10645C4.04204 8.34739 2.79038 10.0484 2.09766 12.001C3.53901 16.0794 7.42882 19 11.999 19C13.6306 19 15.1719 18.6268 16.5479 17.9639L14.7539 16.1699C14.216 16.5252 13.6131 16.7774 12.9746 16.9043C12.0048 17.097 10.9994 16.9976 10.0859 16.6191C9.1725 16.2406 8.39204 15.5995 7.84277 14.7773C7.3621 14.0578 7.07722 13.2279 7.01367 12.3691L7 12C7 10.9815 7.3058 10.0334 7.8291 9.24316L5.69238 7.10645ZM12 3C17.5775 3 22.3026 6.65367 23.9121 11.6963L24.0088 12.001L23.9111 12.3057C23.5006 13.5858 22.8863 14.7915 22.0918 15.876L21.501 16.6826L19.8877 15.501L20.4785 14.6943C21.0827 13.8697 21.56 12.9604 21.9014 11.998C20.4587 7.92017 16.5687 5 12 5C11.4218 5 10.8586 5.04511 10.3096 5.13477L9.32227 5.2959L9 3.32227L9.98633 3.16113C10.6452 3.0535 11.317 3 12 3ZM13.4707 7.2207C14.2501 7.46126 14.9594 7.88808 15.5361 8.46484C16.1129 9.04161 16.5397 9.75088 16.7803 10.5303L17.0752 11.4854L15.1641 12.0752L14.8691 11.1201C14.7246 10.6519 14.4686 10.2254 14.1221 9.87891C13.7756 9.53239 13.3491 9.27636 12.8809 9.13184L11.9258 8.83691L12.5156 6.92578L13.4707 7.2207ZM9 12C8.99998 12.5933 9.17626 13.1736 9.50586 13.667C9.8354 14.1601 10.3037 14.5444 10.8516 14.7715C11.3997 14.9986 12.003 15.0581 12.585 14.9424C12.8306 14.8936 13.0664 14.8117 13.29 14.7051L9.29395 10.709C9.10667 11.1004 9 11.5373 9 12Z"/>
</g>
<defs>
<clipPath id="clip0_105_6418">
<rect width="24" height="24" fill="white"/>
</clipPath>
</defs>
</svg>
