<svg width="24" height="24" viewBox="0 0 24 24" xmlns="http://www.w3.org/2000/svg">
<g clip-path="url(#clip0_105_6398)">
<path d="M12 3C17.5786 3 22.3017 6.65362 23.9102 11.6963L24.0068 12L23.9102 12.3037C22.3017 17.3464 17.5776 21 12 21C6.42146 21 1.69734 17.3465 0.0888672 12.3037L-0.0078125 12L0.0888672 11.6963C1.69833 6.65381 6.42132 3 12 3ZM12 5C7.42955 5 3.53962 7.92076 2.09766 12C3.53868 16.079 7.42936 19 12 19C16.5695 19 20.4593 16.0789 21.9004 12C20.4593 7.92102 16.5704 5 12 5Z"/>
<path d="M14.9853 11.7031C14.9171 11.0165 14.6133 10.3711 14.1211 9.87891C13.6289 9.38671 12.9835 9.08291 12.2969 9.01465L12 9C11.2043 9 10.4415 9.3163 9.8789 9.87891C9.31629 10.4415 8.99999 11.2044 8.99999 12L9.01464 12.2969C9.0829 12.9835 9.3867 13.6289 9.8789 14.1211C10.4415 14.6837 11.2043 15 12 15L12.2969 14.9854C12.9835 14.9171 13.6289 14.6133 14.1211 14.1211C14.6837 13.5585 15 12.7956 15 12L14.9853 11.7031ZM16.9941 12.248C16.9328 13.4838 16.4142 14.6561 15.5351 15.5352C14.6561 16.4142 13.4838 16.9328 12.248 16.9941L12 17C10.6739 17 9.40252 16.4728 8.46484 15.5352C7.58578 14.6561 7.06718 13.4838 7.00585 12.248L6.99999 12C6.99999 10.6739 7.52715 9.40253 8.46484 8.46484C9.40252 7.52716 10.6739 7 12 7L12.248 7.00586C13.4838 7.06719 14.6561 7.58579 15.5351 8.46484C16.4728 9.40253 17 10.6739 17 12L16.9941 12.248Z"/>
</g>
<defs>
<clipPath id="clip0_105_6398">
<rect width="24" height="24" fill="white"/>
</clipPath>
</defs>
</svg>
