<svg width="24" height="24" viewBox="0 0 24 24" xmlns="http://www.w3.org/2000/svg">
<path d="M8 16C8.79565 16 9.55849 16.3163 10.1211 16.8789C10.4402 17.198 10.6764 17.5826 10.8242 18H22V20H10.8242C10.6764 20.4174 10.4402 20.802 10.1211 21.1211C9.55849 21.6837 8.79565 22 8 22C7.20435 22 6.44151 21.6837 5.87891 21.1211C5.55984 20.802 5.32358 20.4174 5.17578 20H2V18H5.17578C5.32358 17.5826 5.55984 17.198 5.87891 16.8789C6.44151 16.3163 7.20435 16 8 16ZM8 18C7.73478 18 7.48051 18.1054 7.29297 18.293C7.10543 18.4805 7 18.7348 7 19L7.00488 19.0986C7.02757 19.3276 7.12883 19.5429 7.29297 19.707C7.48051 19.8946 7.73478 20 8 20C8.26522 20 8.51949 19.8946 8.70703 19.707C8.89457 19.5195 9 19.2652 9 19C9 18.7348 8.89457 18.4805 8.70703 18.293C8.51949 18.1054 8.26522 18 8 18ZM16.2969 9.01465C16.9835 9.08291 17.6289 9.38671 18.1211 9.87891C18.4402 10.198 18.6764 10.5826 18.8242 11H22V13H18.8242C18.6764 13.4174 18.4402 13.802 18.1211 14.1211C17.5585 14.6837 16.7957 15 16 15C15.2043 15 14.4415 14.6837 13.8789 14.1211C13.5598 13.802 13.3236 13.4174 13.1758 13H2V11H13.1758C13.3236 10.5826 13.5598 10.198 13.8789 9.87891C14.4415 9.3163 15.2043 9 16 9L16.2969 9.01465ZM15.9014 11.0049C15.6724 11.0276 15.4571 11.1288 15.293 11.293C15.1054 11.4805 15 11.7348 15 12C15 12.2652 15.1054 12.5195 15.293 12.707C15.4805 12.8946 15.7348 13 16 13C16.2652 13 16.5195 12.8946 16.707 12.707C16.8946 12.5195 17 12.2652 17 12C17 11.7348 16.8946 11.4805 16.707 11.293C16.5195 11.1054 16.2652 11 16 11L15.9014 11.0049ZM8.29688 2.01465C8.98351 2.08291 9.6289 2.38671 10.1211 2.87891C10.4402 3.19797 10.6764 3.58261 10.8242 4H22V6H10.8242C10.6764 6.41739 10.4402 6.80203 10.1211 7.12109C9.6289 7.61329 8.98351 7.91709 8.29688 7.98535L8 8C7.20435 8 6.44152 7.6837 5.87891 7.12109C5.55984 6.80203 5.32358 6.41739 5.17578 6H2V4H5.17578C5.32358 3.58261 5.55984 3.19797 5.87891 2.87891C6.44152 2.3163 7.20435 2 8 2L8.29688 2.01465ZM7.90137 4.00488C7.67237 4.02757 7.45711 4.12883 7.29297 4.29297C7.10543 4.4805 7 4.73478 7 5L7.00488 5.09863C7.02757 5.32763 7.12883 5.54289 7.29297 5.70703C7.4805 5.89457 7.73478 6 8 6L8.09863 5.99512C8.32763 5.97243 8.54289 5.87117 8.70703 5.70703C8.89457 5.51949 9 5.26522 9 5C9 4.73478 8.89457 4.48051 8.70703 4.29297C8.5195 4.10543 8.26522 4 8 4L7.90137 4.00488Z"/>
</svg>
