<svg width="24" height="24" viewBox="0 0 24 24" xmlns="http://www.w3.org/2000/svg">
<path d="M22 2V22H2V2H22ZM4 16.4141V20H17.5859L9 11.4141L4 16.4141ZM4 13.5859L9 8.58594L20 19.5859V4H4V13.5859Z"/>
<path d="M16.75 8.25C16.75 7.69772 16.3023 7.25 15.75 7.25C15.1977 7.25 14.75 7.69772 14.75 8.25C14.75 8.80228 15.1977 9.25 15.75 9.25C16.3023 9.25 16.75 8.80228 16.75 8.25ZM18.75 8.25C18.75 9.90685 17.4069 11.25 15.75 11.25C14.0931 11.25 12.75 9.90685 12.75 8.25C12.75 6.59315 14.0931 5.25 15.75 5.25C17.4069 5.25 18.75 6.59315 18.75 8.25Z"/>
</svg>
