<svg width="24" height="24" viewBox="0 0 24 24" xmlns="http://www.w3.org/2000/svg">
<path d="M18 20H14V18H18V14H20V18H24V20H20V24H18V20ZM20 4H4V13.5859L9 8.58594L14.4141 14L13 15.4141L9 11.4141L4 16.4141V20H12V22H2V2H22V12H20V4ZM16.75 8.25C16.75 7.98478 16.6446 7.73051 16.457 7.54297C16.2695 7.35543 16.0152 7.25 15.75 7.25C15.4848 7.25 15.2305 7.35543 15.043 7.54297C14.8554 7.73051 14.75 7.98478 14.75 8.25C14.75 8.51522 14.8554 8.76949 15.043 8.95703C15.2305 9.14457 15.4848 9.25 15.75 9.25C16.0152 9.25 16.2695 9.14457 16.457 8.95703C16.6446 8.76949 16.75 8.51522 16.75 8.25ZM18.75 8.25C18.75 9.04565 18.4337 9.80849 17.8711 10.3711C17.3085 10.9337 16.5457 11.25 15.75 11.25C14.9543 11.25 14.1915 10.9337 13.6289 10.3711C13.0663 9.80849 12.75 9.04565 12.75 8.25C12.75 7.45435 13.0663 6.69151 13.6289 6.12891C14.1915 5.5663 14.9544 5.25 15.75 5.25C16.5456 5.25 17.3085 5.5663 17.8711 6.12891C18.4337 6.69151 18.75 7.45435 18.75 8.25Z"/>
</svg>
