<svg width="24" height="24" viewBox="0 0 24 24" xmlns="http://www.w3.org/2000/svg">
<path d="M12.5664 22.8242L12 23.2139L11.4336 22.8242L12 22L12.5664 22.8242ZM19 10C19 8.14348 18.2629 6.36256 16.9502 5.0498C15.7194 3.819 14.077 3.09452 12.3467 3.00879L12 3C10.1435 3 8.36256 3.73705 7.0498 5.0498C5.73705 6.36256 5 8.14348 5 10C5 12.8627 6.78237 15.6234 8.73828 17.7627C9.69837 18.8128 10.6617 19.6708 11.3857 20.2666C11.6186 20.4582 11.8265 20.6212 12 20.7549C12.1735 20.6212 12.3814 20.4582 12.6143 20.2666C13.3383 19.6708 14.3016 18.8128 15.2617 17.7627C17.2176 15.6234 19 12.8627 19 10ZM21 10C21 13.6373 18.7823 16.8766 16.7383 19.1123C15.6984 20.2497 14.6617 21.173 13.8857 21.8115C13.497 22.1314 13.1714 22.3812 12.9414 22.5527C12.8264 22.6385 12.7347 22.7044 12.6709 22.75C12.6391 22.7727 12.6143 22.7904 12.5967 22.8027L12.5693 22.8223L12.5674 22.8232L12 22L11.4326 22.8232L11.4307 22.8223L11.4033 22.8027C11.3857 22.7904 11.3609 22.7727 11.3291 22.75C11.2653 22.7044 11.1736 22.6385 11.0586 22.5527C10.8286 22.3812 10.503 22.1314 10.1143 21.8115C9.33831 21.173 8.30158 20.2497 7.26172 19.1123C5.21766 16.8766 3 13.6373 3 10C3 7.61305 3.94791 5.32357 5.63574 3.63574C7.32357 1.94791 9.61305 1 12 1C14.3869 1 16.6764 1.94791 18.3643 3.63574C20.0521 5.32357 21 7.61305 21 10Z" />
<path d="M14 10C14 9.46957 13.7891 8.96101 13.4141 8.58594C13.039 8.21087 12.5304 8 12 8C11.4696 8 10.961 8.21087 10.5859 8.58594C10.2109 8.96101 10 9.46957 10 10C10 10.5304 10.2109 11.039 10.5859 11.4141C10.961 11.7891 11.4696 12 12 12C12.5304 12 13.039 11.7891 13.4141 11.4141C13.7891 11.039 14 10.5304 14 10ZM16 10C16 11.0609 15.5783 12.078 14.8281 12.8281C14.078 13.5783 13.0609 14 12 14C10.9391 14 9.92202 13.5783 9.17188 12.8281C8.42173 12.078 8 11.0609 8 10C8 8.93913 8.42173 7.92202 9.17188 7.17188C9.92202 6.42173 10.9391 6 12 6C13.0609 6 14.078 6.42173 14.8281 7.17188C15.5783 7.92202 16 8.93913 16 10Z"/>
</svg>
