<svg width="24" height="24" viewBox="0 0 24 24" xmlns="http://www.w3.org/2000/svg">
<path d="M17.5254 5.1156L19.624 4.40076L21.5391 10.0033H22V12.0033H20.1094L18.377 6.93787L3.67676 11.9496L3.51562 12.0043L3.35156 12.0033L3.35059 12.0043H1.5V10.0043H2.00879V9.99158L2.6582 9.99646L14.3467 0.659546L17.5254 5.1156ZM7.84082 8.41638L15.5488 5.78943L13.9443 3.54041L7.84082 8.41638Z"/>
<path d="M13.4922 15.8515C13.458 15.5082 13.3066 15.1855 13.0605 14.9394C12.7792 14.6581 12.3978 14.5 12 14.5C11.6022 14.5 11.2208 14.6581 10.9395 14.9394C10.6581 15.2207 10.5 15.6022 10.5 16C10.5 16.3978 10.6581 16.7792 10.9395 17.0605C11.2208 17.3418 11.6022 17.5 12 17.5C12.3978 17.5 12.7792 17.3418 13.0605 17.0605C13.3419 16.7792 13.5 16.3978 13.5 16L13.4922 15.8515ZM15.4961 16.1738C15.4531 17.0388 15.0899 17.8593 14.4746 18.4746C13.8182 19.131 12.9283 19.5 12 19.5C11.0717 19.5 10.1818 19.131 9.52539 18.4746C8.86901 17.8182 8.5 16.9282 8.5 16C8.5 15.0717 8.86901 14.1817 9.52539 13.5254C10.1818 12.869 11.0717 12.5 12 12.5C12.9283 12.5 13.8182 12.869 14.4746 13.5254C15.131 14.1817 15.5 15.0717 15.5 16L15.4961 16.1738Z"/>
<path d="M22.5 9.99998V22H1.5V9.99998H22.5ZM3.5 20H20.5V12H3.5V20Z"/>
<path d="M2.49902 17.998C2.89339 17.9976 3.284 18.0749 3.64844 18.2256C4.01296 18.3763 4.34412 18.598 4.62305 18.8769C4.90198 19.1559 5.12364 19.487 5.27441 19.8515C5.42511 20.216 5.50234 20.6066 5.50195 21.001L5.50098 22H1.5V17.999L2.49902 17.998ZM22.5 18V22H18.5V21C18.5 20.2043 18.8163 19.4415 19.3789 18.8789C19.9415 18.3163 20.7043 18 21.5 18H22.5ZM5.5 9.99998V11C5.5 11.7956 5.1837 12.5585 4.62109 13.1211C4.05849 13.6837 3.29565 14 2.5 14H1.5V9.99998H5.5ZM22.5 9.99998V14H21.5C20.7043 14 19.9415 13.6837 19.3789 13.1211C18.8163 12.5585 18.5 11.7956 18.5 11V9.99998H22.5Z"/>
</svg>
