<svg width="24" height="24" viewBox="0 0 24 24" xmlns="http://www.w3.org/2000/svg">
<path d="M19 3V20L16.5 18L14.25 20L12 18L9.75 20L7.5 18L5 20V3H19ZM6 17.918L7.53418 16.6924L9.75 18.6621L12 16.6621L14.25 18.6621L16.4658 16.6924L18 17.918V4H6V17.918Z"/>
<path d="M22 2V4H20V22.0811L16.5332 19.3076L14.25 21.3379L12 19.3369L9.75 21.3379L7.46582 19.3076L4 22.0811V4H2V2H22ZM6 17.918L7.53418 16.6924L9.75 18.6621L12 16.6621L14.25 18.6621L16.4658 16.6924L18 17.918V4H6V17.918ZM15 11V13H9V11H15ZM16 7V9H8V7H16Z"/>
</svg>
