<svg width="24" height="24" viewBox="0 0 24 24" xmlns="http://www.w3.org/2000/svg">
<path d="M1.00003 2H9.58003L11.067 8.69L9.20703 10.55C10.3007 12.252 11.7477 13.6988 13.45 14.792L15.31 12.933L22 14.42V23H21C17.1504 23.0066 13.3814 21.8964 10.15 19.804C7.76725 18.262 5.73807 16.2328 4.19603 13.85C2.10365 10.6186 0.993465 6.84967 1.00003 3V2ZM3.02703 4C3.19554 7.11991 4.17776 10.1414 5.87603 12.764C7.26435 14.909 9.09107 16.7357 11.236 18.124C13.8586 19.8223 16.8801 20.8045 20 20.973V16.024L15.947 15.124L13.773 17.299L13.11 16.922C10.5927 15.4915 8.50857 13.4074 7.07803 10.89L6.70103 10.227L8.87603 8.053L7.97603 4H3.02703Z"/>
</svg>
