<svg width="24" height="24" viewBox="0 0 24 24" xmlns="http://www.w3.org/2000/svg">
<path d="M21 12C21 7.02928 16.9707 3 12 3C7.02928 3 3 7.02928 3 12C3 16.9707 7.02928 21 12 21V22C6.477 22 2 17.523 2 12C2 6.477 6.477 2 12 2C17.523 2 22 6.477 22 12C22 17.523 17.523 22 12 22V21C16.9707 21 21 16.9707 21 12Z"/>
<path d="M14.5 8.5C14.5 7.83696 14.2364 7.20126 13.7676 6.73242C13.3573 6.32219 12.8194 6.06952 12.2471 6.0127L12 6C11.337 6 10.7013 6.26358 10.2324 6.73242C9.76358 7.20126 9.5 7.83696 9.5 8.5C9.5 8.82831 9.56479 9.15372 9.69043 9.45703C9.81606 9.76022 10.0004 10.0355 10.2324 10.2676C10.4645 10.4996 10.7398 10.6839 11.043 10.8096C11.3463 10.9352 11.6717 11 12 11V12C11.5404 12 11.0848 11.9093 10.6602 11.7334C10.2887 11.5795 9.94671 11.3632 9.64941 11.0938L9.52539 10.9746C9.24105 10.6903 9.00755 10.3598 8.83594 9.99707L8.7666 9.83984C8.59071 9.4152 8.5 8.95963 8.5 8.5C8.5 7.62992 8.82412 6.79336 9.40527 6.15137L9.52539 6.02539C10.1818 5.36901 11.0717 5 12 5C12.9283 5 13.8182 5.36901 14.4746 6.02539C15.131 6.68177 15.5 7.57174 15.5 8.5C15.5 8.95963 15.4093 9.4152 15.2334 9.83984L15.1641 9.99707C14.9924 10.3598 14.759 10.6903 14.4746 10.9746C14.1497 11.2995 13.7643 11.5575 13.3398 11.7334L13.1787 11.7959C12.8009 11.931 12.4021 12 12 12V11C12.3283 11 12.6537 10.9352 12.957 10.8096C13.2602 10.6839 13.5355 10.4996 13.7676 10.2676C13.9996 10.0355 14.1839 9.76022 14.3096 9.45703C14.4352 9.15372 14.5 8.82831 14.5 8.5Z"/>
<path d="M9.5 15H14.5C15.5609 15 16.578 15.4217 17.3281 16.1719C18.0783 16.922 18.5 17.9391 18.5 19V19.5996C16.6904 21.1518 14.3841 22.0037 12 22C9.61592 22.0037 7.3096 21.1518 5.5 19.5996V19C5.5 18.0054 5.87069 17.0492 6.53516 16.3154L6.67188 16.1719C7.42202 15.4217 8.43913 15 9.5 15ZM9.5 16C8.70435 16 7.94152 16.3163 7.37891 16.8789C6.8163 17.4415 6.5 18.2044 6.5 19V19.124C8.07032 20.3398 10.0036 21.003 11.998 21H12.002L12.4023 20.9912C14.2542 20.9112 16.035 20.2583 17.5 19.124V19C17.5 18.2044 17.1837 17.4415 16.6211 16.8789C16.1289 16.3867 15.4835 16.0829 14.7969 16.0146L14.5 16H9.5Z"/>
<path d="M14.5 8.5C14.5 7.83696 14.2364 7.20126 13.7676 6.73242C13.3573 6.32219 12.8194 6.06952 12.2471 6.0127L12 6C11.337 6 10.7013 6.26358 10.2324 6.73242C9.76358 7.20126 9.5 7.83696 9.5 8.5C9.5 8.82831 9.56479 9.15372 9.69043 9.45703C9.81606 9.76022 10.0004 10.0355 10.2324 10.2676C10.4645 10.4996 10.7398 10.6839 11.043 10.8096C11.3463 10.9352 11.6717 11 12 11C12.3283 11 12.6537 10.9352 12.957 10.8096C13.2602 10.6839 13.5355 10.4996 13.7676 10.2676C13.9996 10.0355 14.1839 9.76022 14.3096 9.45703C14.4352 9.15372 14.5 8.82831 14.5 8.5ZM16.5 8.5C16.5 9.09086 16.3833 9.67579 16.1572 10.2217C15.9311 10.7676 15.5995 11.2638 15.1816 11.6816C14.7638 12.0995 14.2676 12.4311 13.7217 12.6572C13.1758 12.8833 12.5909 13 12 13C11.4091 13 10.8242 12.8833 10.2783 12.6572C9.73236 12.4311 9.23622 12.0995 8.81836 11.6816C8.4005 11.2638 8.06892 10.7676 7.84277 10.2217C7.6167 9.67579 7.5 9.09086 7.5 8.5C7.5 7.30653 7.97445 6.16227 8.81836 5.31836C9.66227 4.47445 10.8065 4 12 4C13.1935 4 14.3377 4.47445 15.1816 5.31836C16.0256 6.16227 16.5 7.30653 16.5 8.5Z"/>
<path d="M14.5 14C15.8261 14 17.0975 14.5272 18.0352 15.4648C18.9728 16.4025 19.5 17.6739 19.5 19V20.0596L19.1514 20.3594C17.1607 22.0668 14.6235 23.0025 12.001 22.999L11.998 23C9.37585 23.0033 6.83903 22.0666 4.84863 20.3594L4.5 20.0596V19L4.50586 18.752C4.56719 17.5162 5.08579 16.3439 5.96484 15.4648C6.90253 14.5272 8.17392 14 9.5 14H14.5ZM9.5 16C8.70435 16 7.94152 16.3163 7.37891 16.8789C6.8163 17.4415 6.5 18.2044 6.5 19V19.124C8.07032 20.3398 10.0036 21.003 11.998 21H12.002L12.4023 20.9912C14.2542 20.9112 16.035 20.2583 17.5 19.124V19C17.5 18.2044 17.1837 17.4415 16.6211 16.8789C16.1289 16.3867 15.4835 16.0829 14.7969 16.0146L14.5 16H9.5Z"/>
<path d="M21 12C21 7.02928 16.9707 3 12 3C7.02928 3 3 7.02928 3 12C3 16.9707 7.02928 21 12 21C16.9707 21 21 16.9707 21 12ZM23 12C23 18.0753 18.0753 23 12 23C5.92472 23 1 18.0753 1 12C1 5.92472 5.92472 1 12 1C18.0753 1 23 5.92472 23 12Z"/>
</svg>
