<svg width="24" height="24" viewBox="0 0 24 24" xmlns="http://www.w3.org/2000/svg">
<path d="M14 14.125C14 13.8929 13.9082 13.67 13.7441 13.5059C13.58 13.3418 13.3571 13.25 13.125 13.25H8.43457C8.27048 13.2497 8.10779 13.2813 7.95605 13.3438C7.80425 13.4063 7.66613 13.4984 7.5498 13.6143L5.5 15.6641V19.5H11.1289L16.9258 18.0498L20.457 16.5449C20.5792 16.4838 20.6753 16.3811 20.7256 16.2539C20.7765 16.1248 20.7771 15.9811 20.7275 15.8516C20.6778 15.7219 20.5813 15.6147 20.457 15.5527C20.3329 15.4909 20.19 15.4784 20.0566 15.5166L20.0312 15.5234L20.0049 15.5293L13.7246 16.9746L13.6133 17H10V15H13.125C13.3571 15 13.58 14.9082 13.7441 14.7441C13.9082 14.58 14 14.3571 14 14.125ZM2 19.5H3.5V16.25H2V19.5ZM7.5 2H21.5V11.5H19.5V4H17.5V9.61816L14.5 8.11816L11.5 9.61816V4H9.5V9.5H7.5V2ZM13.5 6.38184L14.5 5.88184L15.5 6.38184V4H13.5V6.38184ZM15.9863 14.4014L19.5566 13.5801C20.1565 13.4214 20.7943 13.4862 21.3506 13.7637C21.9223 14.049 22.3669 14.5381 22.5957 15.1348C22.8245 15.7316 22.8205 16.3928 22.5859 16.9873C22.3512 17.5819 21.902 18.0679 21.3271 18.3477L21.3047 18.3584L21.2822 18.3682L17.5693 19.9512L17.4922 19.9697L11.4922 21.4697L11.373 21.5H0V14.25H4.08594L6.13867 12.1973C6.44104 11.8961 6.79976 11.6576 7.19434 11.4951C7.58832 11.3329 8.01046 11.2494 8.43652 11.25H13.125C13.8875 11.25 14.619 11.5526 15.1582 12.0918C15.6974 12.631 16 13.3625 16 14.125C16 14.2177 15.9952 14.3099 15.9863 14.4014Z"/>
</svg>
