<svg width="24" height="24" viewBox="0 0 24 24" xmlns="http://www.w3.org/2000/svg">
<path d="M17 19H13V17H17V13H19V17H23V19H19V23H17V19ZM2 20C2 18.4087 2.63259 16.883 3.75781 15.7578C4.88303 14.6326 6.4087 14 8 14H12V16H8C6.93913 16 5.92202 16.4217 5.17188 17.1719C4.42173 17.922 4 18.9391 4 20H12.0498V22H2V20ZM15 7.5C15 6.57174 14.631 5.68177 13.9746 5.02539C13.3182 4.36901 12.4283 4 11.5 4C10.5717 4 9.68177 4.36901 9.02539 5.02539C8.36901 5.68177 8 6.57174 8 7.5L8.00391 7.67383C8.04688 8.5388 8.4101 9.35932 9.02539 9.97461C9.68177 10.631 10.5717 11 11.5 11C12.4283 11 13.3182 10.631 13.9746 9.97461C14.631 9.31823 15 8.42826 15 7.5ZM17 7.5C17 8.95869 16.4201 10.3572 15.3887 11.3887C14.3572 12.4201 12.9587 13 11.5 13C10.0413 13 8.64278 12.4201 7.61133 11.3887C6.57988 10.3572 6 8.95869 6 7.5C6 6.04131 6.57988 4.64278 7.61133 3.61133C8.64278 2.57988 10.0413 2 11.5 2C12.9587 2 14.3572 2.57988 15.3887 3.61133C16.4201 4.64278 17 6.04131 17 7.5Z"/>
</svg>
