<svg width="32" height="32" fill="none" xmlns="http://www.w3.org/2000/svg"><path d="M16 4A12 12 0 004 16c0 3.196 1.247 6.097 3.284 8.248l.672.71L6.266 28H16a11.999 11.999 0 100-24zM1.333 16C1.333 7.9 7.9 1.333 16 1.333S30.667 7.9 30.667 16 24.1 30.667 16 30.667H1.733l2.96-5.326A14.613 14.613 0 011.333 16zM16 10a2.667 2.667 0 00-2.515 1.777l-.445 1.258-2.513-.888.444-1.258a5.335 5.335 0 118.328 5.968c-.575.454-1.09.888-1.462 1.346-.365.45-.504.813-.504 1.13V21h-2.666v-1.667c0-1.156.52-2.097 1.101-2.813.576-.707 1.299-1.299 1.88-1.757A2.666 2.666 0 0016 10zm-1.333 12.333h2.672v2.672h-2.672v-2.672z" fill="url(#paint0_linear_1_189)"/><defs><linearGradient id="paint0_linear_1_189" x1="16" y1="1.333" x2="16" y2="30.667" gradientUnits="userSpaceOnUse"><stop stop-color="#5793C7"/><stop offset="1" stop-color="#1C4354"/></linearGradient></defs></svg>