<svg width="32" height="32" fill="none" xmlns="http://www.w3.org/2000/svg"><path d="M16 16.667a4.666 4.666 0 100 9.332 4.666 4.666 0 000-9.332zm-2 4.666a2 2 0 114 0 2 2 0 01-4 0z" fill="#21495D"/><path d="M23.368 6.821L19.129.88 3.544 13.329l-.864-.009v.013H2v16h28v-16h-1.283l-2.552-7.465-2.797.953zm2.532 6.512H12.53l9.958-3.394 2.03-.65 1.382 4.044zM20.733 7.72l-10.28 3.504 8.142-6.504 2.138 3zM4.667 24.225V18.44A4 4 0 007.107 16h17.786a4 4 0 002.44 2.44v5.787a4 4 0 00-2.44 2.44H7.11a4.014 4.014 0 00-2.442-2.442z" fill="url(#paint0_linear_1_164)"/><defs><linearGradient id="paint0_linear_1_164" x1="16" y1=".879" x2="16" y2="29.333" gradientUnits="userSpaceOnUse"><stop stop-color="#5793C7"/><stop offset="1" stop-color="#1C4354"/></linearGradient></defs></svg>