<svg width="32" height="32" fill="none" xmlns="http://www.w3.org/2000/svg"><path d="M11.667 5.667c-5.191 0-9 3.512-9 7.392 0 2.133 1.113 4.114 3.002 5.506a1.334 1.334 0 01.532 1.244l-.093.712 1.107-.554a1.333 1.333 0 011.026-.072 10.67 10.67 0 003.426.556c.338 0 .672-.015 1-.046.005-4.28 3.565-7.57 7.928-8.268-.547-3.497-4.152-6.47-8.928-6.47zm11.609 6.373c4.728.407 8.724 3.832 8.724 8.375 0 2.182-.948 4.136-2.444 5.598v2.6a1.333 1.333 0 01-2 1.154l-2.3-1.328c-.952.26-1.935.391-2.923.39-4.162 0-7.898-2.329-9.19-5.792a13.6 13.6 0 01-5.214-.445l-2.868 1.44a1.334 1.334 0 01-1.92-1.365l.319-2.455C1.357 18.42 0 15.902 0 13.059 0 7.3 5.444 3 11.667 3c5.85 0 11.012 3.8 11.609 9.04zM6.996 9.995A1.333 1.333 0 018.329 8.66h.004a1.333 1.333 0 011.334 1.334V10a1.333 1.333 0 01-1.334 1.333h-.005A1.333 1.333 0 016.995 10l.001-.005zm6.67.014A1.333 1.333 0 0115 8.676h.005a1.333 1.333 0 011.334 1.333v.006a1.333 1.333 0 01-1.334 1.333H15a1.333 1.333 0 01-1.333-1.333v-.006zm8.667 4.658c-.097 0-.195.001-.293.005-3.93.133-6.707 2.835-6.707 5.743 0 .3.027.593.082.88.49 2.612 3.262 4.868 6.918 4.868a8.265 8.265 0 002.66-.431 1.334 1.334 0 011.094.107l.802.464v-.878a1.333 1.333 0 01.471-1.017c1.256-1.065 1.973-2.483 1.973-3.993 0-2.979-2.922-5.748-7-5.748zm-4.258 3.541a1.333 1.333 0 011.333-1.333h.005a1.333 1.333 0 011.334 1.333v.005a1.333 1.333 0 01-1.334 1.334h-.005a1.333 1.333 0 01-1.333-1.334v-.005zm5.84.005a1.333 1.333 0 011.333-1.333h.005a1.333 1.333 0 011.334 1.333v.006a1.333 1.333 0 01-1.334 1.333h-.005a1.333 1.333 0 01-1.333-1.333v-.006z" fill="url(#paint0_linear_1_157)"/><defs><linearGradient id="paint0_linear_1_157" x1="16" y1="3" x2="16" y2="29.945" gradientUnits="userSpaceOnUse"><stop stop-color="#5793C7"/><stop offset="1" stop-color="#1C4354"/></linearGradient></defs></svg>