<svg width="624" height="760" fill="none" xmlns="http://www.w3.org/2000/svg"><path d="M52.085 545.419v55.29l72.039 83.33V760h-5v-74.1l-72.04-83.329v-55.29l-33.161-38.356 3.783-3.27 34.379 39.764zm93.639 97.644l-46.2-53.43V433.627l23.552-27.246 5.296 4.578-21.848 25.274v150.793l46.2 53.431V760h-7V643.063zm29.6-26.745l-19.14-22.14v-36.327l23.401-27.07V306.989l-17.63-20.401V171.9h3v113.571l17.63 20.401v226.026l-23.401 27.07v34.093l19.14 22.141V760h-3V616.318zm32.21-280.238v133.9l-16.14 18.671v177.428l15.52 17.96V760h-5v-74.1l-15.52-17.96V486.789l16.14-18.67V336.08h5zm22.98 186.398l-12.32-14.249V252.291l24.651-28.51V59.02h3v165.879l-24.651 28.51v253.702l12.32 14.251V760h-3V522.478z" fill="#F2F4F7"/><path d="M258.115 611.418l-18.231-21.1V284.77h3v304.432l18.231 21.1V760h-3V611.418zm31.599-120.348V760h-5V491.07h5z" fill="#F2F4F7"/><path d="M289.704 161.63v67.259l-22.18 25.659v287.913l20.825 24.088-2.269 1.962-21.556-24.933V253.432l22.18-25.661V161.63h3zm-137.44 195.532v100.917l-48.105 55.642-2.27-1.962 47.375-54.798v-98.683L116.29 320.13l2.269-1.96 33.705 38.992zm-73.94-.562v276.55h-3V356.6h3zm535.992 106.715l-33.152 38.355v100.901l-72.04 83.33V760h-5v-75.961l72.04-83.331V499.809l34.368-39.764 3.784 3.27zM475.524 640.457l46.2-53.431V459.033l-21.847-25.264 5.295-4.578 23.552 27.235v133.207l-46.2 53.43V760h-7V640.457zm-25.6-25.255l19.141-22.141v-80.762l-23.401-27.071V353.761l17.63-20.4V210.78h3v123.698l-17.63 20.4v129.233l23.401 27.07v82.997l-19.141 22.14V760h-3V615.202zm-56.69-94.4l12.321-14.25V282.468l-24.651-28.5V132.74h6v118.992l24.651 28.5v228.555l-12.321 14.249V760h-6V520.802z" fill="#F2F4F7"/><path d="M367.134 610.302l.365-.422 17.866-20.68V298.45h3v291.868l-18.231 21.1V760h-3V610.302zm-24.6-141.962V760h-3V468.34h3z" fill="#F2F4F7"/><path d="M341.544 0v227.771l22.18 25.661v290.146l-21.555 24.933-2.269-1.962 20.824-24.088V254.548l-22.18-25.659V0h3zm166.39 261.891l-28.95 28.95v166.12l47.375 54.798-2.269 1.962-48.106-55.643V289.599l29.829-29.83 2.121 2.122zm44.99 140.837V633.15h-3V403.97l-28.99-28.999 2.121-2.122 29.869 29.879zM317.624 0v313.296l-24.12 28.699v80.541l24.12 27.891V760h-7V453.033l-24.12-27.889v-85.7l24.12-28.7V0h7z" fill="#F2F4F7"/><path d="M341.744 361.24v63.903l-24.12 27.89V760h-7V450.427l24.12-27.891V361.24h7zM158.808 557.416l-2.248 1.987-26.1-29.53 2.248-1.986 26.1 29.529z" fill="#F2F4F7"/><path d="M17.906 520.037c7.05-1.144 11.836-7.786 10.692-14.835-1.145-7.049-7.786-11.835-14.835-10.691-7.049 1.144-11.835 7.786-10.691 14.835 1.144 7.048 7.786 11.835 14.834 10.691z" fill="#FC883A"/><path d="M26.13 505.602c-.923-5.685-6.281-9.546-11.967-8.623-5.685.923-9.546 6.28-8.624 11.966.923 5.685 6.28 9.547 11.967 8.624 5.686-.922 9.547-6.281 8.624-11.967zm4.936-.801c1.365 8.412-4.348 16.338-12.76 17.704-8.41 1.365-16.337-4.348-17.702-12.759-1.365-8.412 4.347-16.337 12.758-17.703 8.412-1.365 16.338 4.347 17.704 12.758z" fill="#F2F4F7"/><path d="M9.544 507.29c0 3.46 2.81 6.27 6.27 6.27 3.46 0 6.27-2.81 6.27-6.27 0-3.46-2.81-6.27-6.27-6.27-3.46 0-6.27 2.81-6.27 6.27z" fill="#F2F4F7"/><path d="M21.084 507.29a5.275 5.275 0 00-5.27-5.27 5.274 5.274 0 00-5.27 5.27 5.273 5.273 0 005.27 5.27v1l-.323-.008a6.276 6.276 0 01-5.939-5.939l-.008-.323c0-3.46 2.81-6.27 6.27-6.27 3.46 0 6.27 2.81 6.27 6.27l-.008.323a6.275 6.275 0 01-6.262 5.947v-1a5.274 5.274 0 005.27-5.27zm57.591-142.786a8.101 8.101 0 10-3.724-15.769 8.101 8.101 0 003.724 15.769z" fill="#F2F4F7"/><path d="M83.724 354.989a7.1 7.1 0 10-5.28 8.541l.23.974-.407.085a8.1 8.1 0 116.43-9.83l.086.408a8.1 8.1 0 01-6.108 9.337l-.23-.974a7.1 7.1 0 005.28-8.541zm303.14-49.279a7.26 7.26 0 007.26-7.26 7.26 7.26 0 10-7.26 7.26z" fill="#F2F4F7"/><path d="M393.125 298.45a6.261 6.261 0 00-12.521 0 6.261 6.261 0 006.26 6.26v1a7.26 7.26 0 117.26-7.26l-.009.374a7.26 7.26 0 01-7.251 6.886v-1a6.261 6.261 0 006.261-6.26zm-52.091 177.33a7.44 7.44 0 100-14.88 7.44 7.44 0 000 14.88z" fill="#F2F4F7"/><path d="M347.474 468.34a6.44 6.44 0 10-6.439 6.44l-.001 1-.382-.01a7.44 7.44 0 01-7.048-7.047l-.01-.383a7.44 7.44 0 017.44-7.44l.383.01a7.44 7.44 0 017.057 7.43l-.01.383a7.44 7.44 0 01-7.43 7.057l.001-1a6.44 6.44 0 006.439-6.44zm181.754-87.194c3.999-3.999 3.999-10.482 0-14.481-3.999-3.999-10.482-3.999-14.481 0-3.999 3.999-3.999 10.482 0 14.481 3.999 3.999 10.482 3.999 14.481 0z" fill="#F2F4F7"/><path d="M528.521 367.372a9.239 9.239 0 00-13.067 0 9.239 9.239 0 000 13.067 9.239 9.239 0 0013.067 0l.707.707-.382.364a10.24 10.24 0 01-13.717-.001l-.382-.363c-3.999-3.999-3.999-10.482 0-14.481l.382-.363c4.019-3.632 10.225-3.511 14.099.363l.363.381c3.632 4.02 3.511 10.226-.363 14.1l-.707-.707a9.239 9.239 0 000-13.067z" fill="#F2F4F7"/><path d="M281.934 161.63c0 3.46 2.81 6.27 6.27 6.27 3.46 0 6.27-2.81 6.27-6.27 0-3.46-2.81-6.27-6.27-6.27-3.46 0-6.27 2.81-6.27 6.27z" fill="#5793C7"/><path d="M292.974 161.63a4.774 4.774 0 00-4.77-4.77 4.774 4.774 0 00-4.77 4.77 4.774 4.774 0 004.77 4.77 4.774 4.774 0 004.77-4.77zm3 0a7.774 7.774 0 01-7.77 7.77 7.774 7.774 0 01-7.77-7.77 7.774 7.774 0 017.77-7.77 7.774 7.774 0 017.77 7.77z" fill="#F2F4F7"/><path d="M506.874 273.31c6.893 0 12.48-5.588 12.48-12.48 0-6.893-5.587-12.48-12.48-12.48-6.892 0-12.48 5.587-12.48 12.48 0 6.892 5.588 12.48 12.48 12.48z" fill="#5793C7"/><path d="M517.854 260.83c0-6.063-4.915-10.98-10.979-10.98-6.064 0-10.981 4.916-10.981 10.98s4.917 10.98 10.981 10.98c6.063 0 10.979-4.916 10.979-10.98zm3 0c0 7.721-6.259 13.98-13.979 13.98-7.721 0-13.981-6.259-13.981-13.98 0-7.72 6.26-13.98 13.981-13.98 7.72 0 13.979 6.26 13.979 13.98z" fill="#F2F4F7"/><path d="M612.424 470.23a8.55 8.55 0 100-17.1 8.55 8.55 0 000 17.1z" fill="#FC883A"/><path d="M618.474 461.68a6.05 6.05 0 10-12.1 0 6.05 6.05 0 0012.1 0zm5 0c0 6.103-4.947 11.05-11.05 11.05-6.103 0-11.05-4.948-11.05-11.05 0-6.103 4.947-11.05 11.05-11.05 6.103 0 11.05 4.947 11.05 11.05z" fill="#F2F4F7"/><path d="M514.113 436.278c2.65-6.398-.388-13.734-6.786-16.384-6.399-2.65-13.734.388-16.385 6.787-2.65 6.398.388 13.734 6.787 16.384 6.398 2.65 13.734-.388 16.384-6.787z" fill="#5793C7"/><path d="M505.987 423.128a9.04 9.04 0 10-6.917 16.704 9.04 9.04 0 006.917-16.704zm2.679-6.467c8.184 3.39 12.071 12.773 8.681 20.957-3.39 8.184-12.773 12.071-20.957 8.681-8.185-3.39-12.071-12.773-8.681-20.958 3.39-8.184 12.773-12.071 20.957-8.68z" fill="#F2F4F7"/><path d="M468.172 225.136c7.907-1.867 12.804-9.789 10.938-17.696-1.866-7.907-9.789-12.804-17.696-10.938-7.907 1.866-12.804 9.789-10.937 17.696 1.866 7.907 9.788 12.804 17.695 10.938z" fill="#FC883A"/><path d="M477.65 207.784c-1.676-7.1-8.791-11.498-15.891-9.822-7.101 1.676-11.498 8.791-9.822 15.891 1.675 7.101 8.79 11.498 15.891 9.823 7.1-1.676 11.498-8.791 9.822-15.892zm2.92-.689c2.056 8.713-3.34 17.444-12.053 19.5-8.713 2.057-17.444-3.339-19.5-12.053-2.057-8.713 3.34-17.443 12.053-19.5 8.713-2.056 17.443 3.34 19.5 12.053z" fill="#F2F4F7"/><path d="M464.794 217.88a7.1 7.1 0 100-14.2 7.1 7.1 0 000 14.2z" fill="#5793C7"/><path d="M470.394 210.78a5.6 5.6 0 10-11.2 0 5.6 5.6 0 0011.2 0zm3 0a8.6 8.6 0 11-17.202-.002 8.6 8.6 0 0117.202.002z" fill="#F2F4F7"/><path d="M163.454 186.84c8.251 0 14.94-6.689 14.94-14.94s-6.689-14.94-14.94-14.94-14.94 6.689-14.94 14.94 6.689 14.94 14.94 14.94z" fill="#FC883A"/><path d="M176.894 171.9c0-7.422-6.017-13.44-13.439-13.44-7.423 0-13.441 6.018-13.441 13.44 0 7.423 6.018 13.44 13.441 13.44 7.422 0 13.439-6.017 13.439-13.44zm3 0c0 9.08-7.36 16.44-16.439 16.44-9.08 0-16.441-7.36-16.441-16.44 0-9.079 7.361-16.44 16.441-16.44 9.079 0 16.439 7.361 16.439 16.44z" fill="#F2F4F7"/><path d="M156.884 171.9c0 3.63 2.94 6.57 6.57 6.57 3.63 0 6.57-2.94 6.57-6.57 0-3.63-2.94-6.57-6.57-6.57-3.63 0-6.57 2.94-6.57 6.57z" fill="#5793C7"/><path d="M167.524 171.9c0-2.249-1.82-4.07-4.07-4.07a4.068 4.068 0 00-4.07 4.07 4.068 4.068 0 004.07 4.07 4.068 4.068 0 004.07-4.07zm5 0a9.068 9.068 0 01-9.07 9.07 9.068 9.068 0 01-9.07-9.07c0-5.01 4.06-9.07 9.07-9.07 5.011 0 9.07 4.06 9.07 9.07z" fill="#F2F4F7"/><path d="M288.885 501.235c5.631-.914 9.455-6.221 8.541-11.852-.914-5.631-6.22-9.455-11.852-8.541-5.631.914-9.455 6.22-8.541 11.851.914 5.632 6.22 9.456 11.852 8.542z" fill="#5793C7"/><path d="M294.958 489.784a7.83 7.83 0 10-15.457 2.509 7.83 7.83 0 0015.457-2.509zm4.936-.802c1.135 6.995-3.615 13.585-10.609 14.721-6.994 1.135-13.584-3.615-14.72-10.609-1.135-6.994 3.615-13.585 10.609-14.72 6.994-1.135 13.585 3.614 14.72 10.608z" fill="#F2F4F7"/><path d="M249.281 288.04a8.55 8.55 0 10-15.8-6.542 8.55 8.55 0 0015.8 6.542z" fill="#FC883A"/><path d="M244.079 278.255a7.05 7.05 0 10-5.396 13.026 7.05 7.05 0 005.396-13.026zm1.148-2.772c5.128 2.124 7.563 8.003 5.439 13.131-2.124 5.128-8.003 7.563-13.131 5.439-5.128-2.124-7.563-8.003-5.439-13.131 2.124-5.128 8.003-7.563 13.131-5.439z" fill="#F2F4F7"/><path d="M132.177 415.126a9.12 9.12 0 000-12.898 9.122 9.122 0 100 12.898z" fill="#FC883A"/><path d="M129.702 404.703a5.62 5.62 0 10-7.948 7.947 5.62 5.62 0 007.948-7.947zm4.95-4.95c4.928 4.928 4.928 12.919 0 17.848-4.928 4.928-12.919 4.928-17.847 0-4.929-4.929-4.929-12.92 0-17.848 4.928-4.928 12.919-4.928 17.847 0z" fill="#F2F4F7"/><path d="M133.111 538.114a9.38 9.38 0 007.756-10.761 9.38 9.38 0 00-10.762-7.756 9.38 9.38 0 003.006 18.517z" fill="#5793C7"/><path d="M139.386 527.593a7.88 7.88 0 10-15.556 2.525 7.88 7.88 0 1015.556-2.525zm2.961-.481c.963 5.931-3.064 11.52-8.996 12.483-5.931.962-11.519-3.065-12.482-8.996-.963-5.931 3.065-11.52 8.996-12.483 5.931-.963 11.52 3.065 12.482 8.996zM383.904 142.25a9.51 9.51 0 100-19.02 9.51 9.51 0 000 19.02z" fill="#F2F4F7"/><path d="M392.415 132.74a8.51 8.51 0 10-8.511 8.51v1a9.51 9.51 0 119.51-9.51l-.012.489c-.255 5.025-4.41 9.021-9.498 9.021v-1a8.51 8.51 0 008.511-8.51z" fill="#F2F4F7"/><path d="M338.244 373.91c6.998 0 12.67-5.673 12.67-12.67s-5.672-12.67-12.67-12.67c-6.997 0-12.67 5.673-12.67 12.67s5.673 12.67 12.67 12.67z" fill="#FC883A"/><path d="M347.414 361.24a9.17 9.17 0 10-18.34 0 9.17 9.17 0 0018.34 0zm7 0c0 8.93-7.239 16.17-16.17 16.17-8.93 0-16.17-7.24-16.17-16.17 0-8.93 7.24-16.17 16.17-16.17 8.931 0 16.17 7.24 16.17 16.17z" fill="#F2F4F7"/><path d="M206.876 343.962a8.07 8.07 0 006-9.708 8.069 8.069 0 00-9.708-6 8.07 8.07 0 003.708 15.708z" fill="#5793C7"/><path d="M210.443 334.829a5.57 5.57 0 10-10.842 2.557 5.57 5.57 0 0010.842-2.557zm4.866-1.149c1.341 5.681-2.177 11.374-7.859 12.715-5.681 1.341-11.374-2.178-12.715-7.859-1.341-5.681 2.178-11.375 7.859-12.716 5.682-1.34 11.374 2.179 12.715 7.86z" fill="#F2F4F7"/><path d="M117.424 333.55c7.953 0 14.4-6.447 14.4-14.4s-6.447-14.4-14.4-14.4-14.4 6.447-14.4 14.4 6.447 14.4 14.4 14.4z" fill="#5793C7"/><path d="M130.324 319.15c0-7.124-5.775-12.9-12.899-12.9-7.125 0-12.901 5.776-12.901 12.9 0 7.125 5.776 12.9 12.901 12.9 7.124 0 12.899-5.775 12.899-12.9zm3 0c0 8.781-7.118 15.9-15.899 15.9-8.782 0-15.901-7.118-15.901-15.9 0-8.781 7.119-15.9 15.901-15.9 8.781 0 15.899 7.119 15.899 15.9z" fill="#F2F4F7"/><path d="M117.424 326.98a7.83 7.83 0 100-15.66 7.83 7.83 0 000 15.66z" fill="#F2F4F7"/><path d="M124.254 319.15a6.83 6.83 0 10-6.83 6.83v1l-.403-.011a7.83 7.83 0 01-7.417-7.416l-.01-.403a7.83 7.83 0 017.83-7.83l.403.01a7.83 7.83 0 017.427 7.82l-.011.403a7.83 7.83 0 01-7.819 7.427v-1a6.83 6.83 0 006.83-6.83zm112.91-260.13a7.18 7.18 0 007.18 7.18c3.97 0 7.18-3.21 7.18-7.18 0-3.97-3.21-7.18-7.18-7.18-3.97 0-7.18 3.21-7.18 7.18z" fill="#F2F4F7"/><path d="M250.525 59.02a6.176 6.176 0 00-6.181-6.18 6.174 6.174 0 00-6.18 6.18 6.181 6.181 0 006.18 6.18v1l-.369-.01a7.181 7.181 0 01-6.811-7.17c0-3.97 3.21-7.18 7.18-7.18 3.97 0 7.18 3.21 7.18 7.18l-.009.37a7.174 7.174 0 01-7.171 6.81v-1a6.175 6.175 0 006.181-6.18z" fill="#F2F4F7"/></svg>